/* XPM */
static char *a24a4d20e9154488a2102fa9b74abfd9[] = {
/* columns rows colors chars-per-pixel */
"48 48 149 2 ",
"   c #242422",
".  c #252524",
"X  c gray15",
"o  c #292927",
"O  c #2C2C2A",
"+  c #2C2C2B",
"@  c #2D2D2B",
"#  c #2D2D2C",
"$  c #2E2E2D",
"%  c #2F2F2E",
"&  c #30302F",
"*  c #31312F",
"=  c #313130",
"-  c #323230",
";  c #323231",
":  c #333331",
">  c #333332",
",  c gray20",
"<  c #343432",
"1  c #353533",
"2  c #353534",
"3  c #363634",
"4  c #373735",
"5  c #373736",
"6  c #383836",
"7  c #383837",
"8  c #3B3B3A",
"9  c #3C3C3A",
"0  c #3C3C3B",
"q  c #3F3F3E",
"w  c #3F3F3F",
"e  c #40403F",
"r  c gray25",
"t  c #424241",
"y  c #434341",
"u  c gray26",
"i  c #434342",
"p  c #444443",
"a  c #474746",
"s  c gray28",
"d  c #484846",
"f  c #484847",
"g  c #494948",
"h  c #4A4A49",
"j  c gray29",
"k  c #4B4B4A",
"l  c #4B4B4B",
"z  c #4C4C4B",
"x  c #4D4D4B",
"c  c #4D4D4C",
"v  c #4E4E4D",
"b  c #4F4F4E",
"n  c #50504F",
"m  c #515150",
"M  c #525251",
"N  c #535352",
"B  c #545452",
"V  c #555554",
"C  c #565655",
"Z  c #575756",
"A  c gray34",
"S  c #585856",
"D  c #585857",
"F  c #595958",
"G  c #5A5A59",
"H  c #5B5B5A",
"J  c #5C5C5B",
"K  c #5D5D5C",
"L  c #5D5D5D",
"P  c #5E5E5D",
"I  c #5F5F5E",
"U  c #626261",
"Y  c #656564",
"T  c #666665",
"R  c #696968",
"E  c #6A6A68",
"W  c #6A6A6A",
"Q  c #6C6C6B",
"!  c #717170",
"~  c #717171",
"^  c #737371",
"/  c #727272",
"(  c #777776",
")  c #7B7B7A",
"_  c #7C7C7B",
"`  c #7D7D7C",
"'  c #80807E",
"]  c #858584",
"[  c #878786",
"{  c gray53",
"}  c #969695",
"|  c gray59",
" . c #999998",
".. c #989899",
"X. c #9A9A9B",
"o. c gray61",
"O. c #9D9D9D",
"+. c gray62",
"@. c #A4A4A3",
"#. c #A5A5A5",
"$. c #A6A6A5",
"%. c #A7A7A7",
"&. c gray70",
"*. c #B4B4B4",
"=. c #B8B8B7",
"-. c #B9B9B8",
";. c #B9B9B9",
":. c #BCBCBB",
">. c #C1C1C0",
",. c #C2C2C1",
"<. c #C6C6C6",
"1. c #CACACB",
"2. c #CECECE",
"3. c gray82",
"4. c #D3D3D2",
"5. c #D9D9DA",
"6. c #DADADA",
"7. c gainsboro",
"8. c #DDDDDD",
"9. c #E1E1E1",
"0. c #E3E3E4",
"q. c #E6E6E5",
"w. c #E6E6E6",
"e. c #E7E7E6",
"r. c #E7E7E7",
"t. c gray91",
"y. c #E9E9EA",
"u. c #ECECEC",
"i. c gray93",
"p. c #EEEEED",
"a. c #EEEEEE",
"s. c gray94",
"d. c #F0F0F1",
"f. c #F1F1F1",
"g. c #F2F2F1",
"h. c #F3F3F2",
"j. c #F3F3F3",
"k. c #F4F4F4",
"l. c gray96",
"z. c gray97",
"x. c #F8F8F8",
"c. c #F9F9F9",
"v. c #FAFAFC",
"b. c #FBFBFC",
"n. c #FCFCFD",
"m. c #FDFDFD",
"M. c #FEFEFF",
"N. c gray100",
"B. c None",
/* pixels */
"B.B.B.B.B.B.B.B.B.B.B.B.B.B.B.B.B.B.B.Z Z Z Z Z Z Z Z Z Z B.B.B.B.B.B.B.B.B.B.B.B.B.B.B.B.B.B.B.",
"B.B.B.B.B.B.B.B.B.B.B.B.B.Z Z Z Z Z Z Z Z Z Z Z Z Z Z Z Z Z Z Z Z Z Z B.B.B.B.B.B.B.B.B.B.B.B.B.",
"B.B.B.B.B.B.B.B.B.B.Z Z Z Z Z Z Z Z Z Z Z Z Z Z Z Z Z Z Z Z Z Z Z Z Z Z Z Z B.B.B.B.B.B.B.B.B.B.",
"B.B.B.B.B.B.B.B.Z Z Z Z Z Z Z Z Z Z Z Z Z Z Z Z Z Z Z Z Z Z Z Z Z Z Z Z Z Z Z Z B.B.B.B.B.B.B.B.",
"B.B.B.B.B.B.B.Z Z Z Z Z Z Z Z Z Z Z Z Z Z Z Z Z D Z Z Z Z Z Z Z Z Z Z Z Z Z Z Z Z B.B.B.B.B.B.B.",
"B.B.B.B.B.B.Z Z Z Z Z Z Z Z Z Z Z Z Z Z Z Z P b b P Z D Z Z Z Z Z Z Z Z Z Z Z Z Z Z B.B.B.B.B.B.",
"B.B.B.B.B.Z Z Z Z Z Z Z Z Z Z Z Z Z Z Z F Z 4 b b 4 Z F Z Z Z Z Z Z Z Z Z Z Z Z Z Z Z B.B.B.B.B.",
"B.B.B.B.Z Z Z Z Z Z Z Z Z Z Z D Z Z F P r % ! s.d.~ % w H F Z Z Z Z Z Z Z Z Z Z Z Z Z Z B.B.B.B.",
"B.B.B.Z Z Z Z Z Z Z Z Z Z Z Z D D H k % P >.N.N.N.N.>.P % k P Z D Z Z Z Z Z Z Z Z Z Z Z Z B.B.B.",
"B.B.B.Z Z Z Z Z Z Z Z Z Z D Z H N , a O.N.N.2.H P 2.N.N.O.a , N P D Z Z Z Z Z Z Z Z Z Z Z B.B.B.",
"B.B.Z Z Z Z Z Z Z Z Z Z D H F 6 1 ] z.N.d.' , 8 8 , ` h.N.z.] , 6 F F D Z Z Z Z Z Z Z Z Z Z B.B.",
"B.B.Z Z Z Z Z Z Z Z Z D P r , W 4.N.N.X.y 1 N P P N 1 r  .N.N.4.W 1 r P D Z Z Z Z Z Z Z Z Z B.B.",
"B.B.Z Z Z Z Z Z Z Z P k & B &.N.N.;.D % b H Z Z Z Z H b @ F ;.N.N.&.N & k P D D Z Z Z Z Z Z B.B.",
"B.Z Z Z Z Z Z Z F Z & r | N.N.7.E @ r H F Z Z Z Z Z Z F H r @ W 7.N.N.| w % Z F Z Z Z Z Z Z Z B.",
"B.Z Z Z Z Z Z F N e _ 9.N.c.] 9 6 D H Z Z Z Z Z Z Z Z Z Z F D 6 8 ] c.N.9._ e B F Z Z Z Z Z Z B.",
"B.Z Z Z Z Z Z N a =.N.N.X.% 4 Z H Z Z D Z Z Z Z Z Z Z Z Z Z Z P Z 4 % X.N.N.=.f N Z Z Z Z Z Z B.",
"B.Z Z Z Z Z Z b b e.N.N.@.r , z P D D D Z Z Z Z Z Z Z Z Z D F P z , e @.N.N.e.b b Z Z Z Z Z Z B.",
"B.Z Z Z Z Z Z b z 7.z.1.N.N.o.f , B H Z Z D Z Z Z Z D D Z F B , f O.N.N.1.h.7.b n Z Z Z Z Z Z B.",
"B.Z Z Z Z Z Z N z u.h.1 _ a.N.a._ 4 9 F H D Z Z Z D Z H F 8 6 ` a.N.a.) 4 d.u.z N Z Z Z Z Z Z B.",
"Z Z Z Z Z Z Z b k q.N.z . r O.N.N.4.Y o r P F D Z D H y o Y 4.N.N.O.r X z N.q.k b Z Z Z Z Z Z Z ",
"Z Z Z Z Z Z Z N z e.c.N N k % Z :.N.N.*.N , b H H z & N *.N.N.:.Z , k B N b.e.z N Z Z Z Z Z Z Z ",
"Z Z Z Z Z Z Z b z e.b.b b F P w 1 ~ 5.N.N.} w 4 6 w | N.N.5.~ 1 r P D k b c.e.z b Z Z Z Z Z Z Z ",
"Z Z Z Z Z Z Z N k e.b.b z Z Z F F 4 4 { c.N.a.Q Q a.N.N.] 6 1 F F Z Z b b b.e.z N Z Z Z Z Z Z Z ",
"Z Z Z Z Z Z Z b b e.b.n b F Z Z Z P b % z #.N.N.N.N.#.k , b P D Z Z Z k N b.e.z b Z Z Z Z Z Z Z ",
"Z Z Z Z Z Z Z N z e.c.b b Z Z Z Z Z Z P a + T z.c.T @ a P Z Z Z Z Z D z n N.q.z N Z Z Z Z Z Z Z ",
"Z Z Z Z Z Z Z n z q.b.N b Z Z Z Z Z Z Z F n , e.e., N D Z Z Z Z Z Z D z n c.e.b n Z Z Z Z Z Z Z ",
"Z Z Z Z Z Z Z N b q.b.n k Z Z Z Z Z Z Z Z b b a.a.b z Z Z Z Z Z Z Z D b n b.e.z n Z Z Z Z Z Z Z ",
"Z Z Z Z Z Z Z b z e.b.b b Z Z Z Z Z Z Z Z b k u.a.k b Z Z Z Z Z Z Z D z n b.e.z N Z Z Z Z Z Z Z ",
"Z Z Z Z Z Z Z N b q.c.b b Z Z Z Z Z Z Z Z b k a.a.k z Z Z Z Z Z Z Z D z N c.e.z n Z Z Z Z Z Z Z ",
"B.Z Z Z Z Z Z b z e.N.N k Z Z Z Z Z Z Z Z b k u.u.k b Z Z Z Z Z Z Z D z N b.e.b n Z Z Z Z Z Z B.",
"B.Z Z Z Z Z Z N z e.c.8 b F Z Z Z Z Z Z Z z k u.a.k b Z Z Z Z Z D Z F b 8 z.e.z N Z Z Z Z Z Z B.",
"B.Z Z Z Z Z Z b n d.N.U X k P Z Z Z Z Z Z b k a.u.k b Z Z Z Z Z D H k X U N.d.b b Z Z Z Z Z Z B.",
"B.Z Z Z Z Z Z N f =.N.N.#.a , N P Z Z Z Z b k a.y.k b Z Z Z Z P N 1 f #.N.N.=.f N Z Z Z Z Z Z B.",
"B.Z Z Z Z Z Z F N e ` e.N.z.] 8 6 D F Z Z b k a.a.k b Z Z H D 6 8 ] z.N.e._ e N D Z Z Z Z Z Z B.",
"B.Z Z Z Z Z Z Z F B , e | N.N.7.W @ r H D b k a.y.k b Z H r @ E 7.N.N.| r & B F D Z Z Z Z Z Z B.",
"B.B.Z Z Z Z Z Z D D H z & N &.N.N.;.D % k Z k y.a.k Z k % Z ;.N.N.&.N & z P D Z Z Z Z Z Z Z B.B.",
"B.B.Z Z Z Z Z Z Z Z Z D P r 1 W 4.N.N. .r + a s.d.a @ r X.N.N.4.W , r I D D Z Z Z Z Z Z Z Z B.B.",
"B.B.Z Z Z Z Z Z Z Z Z Z D F F 6 1 ] z.N.d.(   0.9.. ( d.N.z.] 1 6 F F Z Z D Z Z Z Z Z Z Z Z B.B.",
"B.B.B.Z Z Z Z Z Z Z Z Z Z Z D P N , a O.N.N.<.y.a.<.N.N.o.a 1 N H Z Z Z Z Z Z Z Z Z Z Z Z B.B.B.",
"B.B.B.Z Z Z Z Z Z Z Z Z Z Z Z D Z P k % P >.N.N.N.N.>.P % k H D D D Z Z Z Z Z Z Z Z Z Z Z B.B.B.",
"B.B.B.B.Z Z Z Z Z Z Z Z Z Z Z Z Z Z F P w @ ~ u.u.~ % r P F Z Z Z Z Z Z Z Z Z Z Z Z Z Z B.B.B.B.",
"B.B.B.B.B.Z Z Z Z Z Z Z Z Z Z Z Z Z Z Z F Z 4 b b 4 Z F Z Z Z Z Z Z Z Z Z Z Z Z Z Z Z B.B.B.B.B.",
"B.B.B.B.B.B.Z Z Z Z Z Z Z Z Z Z Z Z Z Z F Z P b b F Z Z Z Z Z Z Z Z Z Z Z Z Z Z Z Z B.B.B.B.B.B.",
"B.B.B.B.B.B.B.Z Z Z Z Z Z Z Z Z Z Z Z Z Z Z Z Z A Z Z Z Z Z Z Z Z Z Z Z Z Z Z Z Z B.B.B.B.B.B.B.",
"B.B.B.B.B.B.B.B.Z Z Z Z Z Z Z Z Z Z Z Z Z Z Z Z Z Z Z Z Z Z Z Z Z Z Z Z Z Z Z Z B.B.B.B.B.B.B.B.",
"B.B.B.B.B.B.B.B.B.B.Z Z Z Z Z Z Z Z Z Z Z Z Z Z Z Z Z Z Z Z Z Z Z Z Z Z Z Z B.B.B.B.B.B.B.B.B.B.",
"B.B.B.B.B.B.B.B.B.B.B.B.B.Z Z Z Z Z Z Z Z Z Z Z Z Z Z Z Z Z Z Z Z Z Z B.B.B.B.B.B.B.B.B.B.B.B.B.",
"B.B.B.B.B.B.B.B.B.B.B.B.B.B.B.B.B.B.B.Z Z Z Z Z Z Z Z Z Z B.B.B.B.B.B.B.B.B.B.B.B.B.B.B.B.B.B.B."
};
