/* XPM */
static char *sequence48[] = {
/* columns rows colors chars-per-pixel */
"47 48 80 1 ",
"  c #000000",
". c #080707",
"X c #0C0C0B",
"o c #141413",
"O c #181717",
"+ c #181817",
"@ c #1C1B1B",
"# c #201F1F",
"$ c #20201F",
"% c #242323",
"& c #282726",
"* c #292827",
"= c #2B2A2A",
"- c #302F2E",
"; c #31302F",
": c #343433",
"> c #3A3937",
", c #3C3C3B",
"< c #403F3E",
"1 c #41403F",
"2 c #434343",
"3 c #484745",
"4 c #494846",
"5 c #4B4B4A",
"6 c #504E4E",
"7 c #50504F",
"8 c #525252",
"9 c #585757",
"0 c #595857",
"q c #5C5B5B",
"w c #615F5F",
"e c #61605F",
"r c #636262",
"t c #6D6C6B",
"y c #706F6E",
"u c #757473",
"i c #787777",
"p c #787877",
"a c #7C7B7A",
"s c #807F7F",
"d c #81817F",
"f c #848483",
"g c #888785",
"h c #898886",
"j c #8C8B8B",
"k c #908F8F",
"l c #92908F",
"z c #949393",
"x c #999796",
"c c #9A9997",
"v c #9D9D9C",
"b c #A2A19F",
"n c #A5A4A3",
"m c #A9A7A6",
"M c #A8A8A7",
"N c #ADACAB",
"B c #B0AFAF",
"V c #B3B3B3",
"C c #B8B7B6",
"Z c #B9B8B7",
"A c #BDBDBD",
"S c #C0BFBF",
"D c #C1C0BF",
"F c #C3C2C2",
"G c #C8C7C6",
"H c #C9C8C7",
"J c #CBCBCA",
"K c #D0CFCE",
"L c #D4D3D3",
"P c #D8D7D7",
"I c #D9D8D7",
"U c #DDDCDC",
"Y c #E0E0DF",
"T c #E4E4E3",
"R c #E8E7E7",
"E c #EDECEC",
"W c #F0EFEF",
"Q c #F3F3F3",
"! c #FFFFFF",
"~ c None",
/* pixels */
"~~~~~~~~~~X                                    ",
"~~~~~~~~~@ 1221222222222222222222222222222222O ",
"~~~~~~~~@ x!!!!!!!!!!!!!!!!!!!!!!!!!!!!!!!!!!8 ",
"~~~~~~~% l!!UAAZZFVEHFAVTTAAAAAAAAAAAAAAAAAE!8 ",
"~~~~~~% j!!Fo  ., qB   8U%                 A!8 ",
"~~~~~* f!!GX  1N@8!= .k!r                  A!7 ",
"~~~~* a!!Ho .fE;8!p *G!Z                   A!7 ",
"~~~: p!!Jo >J!2*Zl*fE!E%         >         F!7 ",
"~~: y!!Lo f!!r X<cQ!!!r          t>        D!6 ",
"~1 t!!L@@J!!s .V!!!!!C           3N 4:     A!8 ",
": r!!P@ t!!v >:!!!!!U++98X       XE,oSr    S!7 ",
" :!!U%  b!Z >V0!!ESvxDUpo         FH :!j qOA!7 ",
" 3!W&   UUo LZj!QLU!!B%           a!5 uI 8,V!7 ",
" 2!U   %U% l!EE!!!!L5             1!L :d.X6H!7 ",
" 2!U.  >1 t!!!!!!Qs. .o         O:XQQ%Tu qLF!6 ",
" 3!U.    6!!!!!!H* Xtv@    >%p: <d HTu!H UjV!8 ",
" 2!Y. @$*W!!!!!T@XjRT*   3a!!U@ tV jEU!F6!2V!7 ",
" 3!U. 2IU!!!!!Q>.F!R# X. U!!!q .KL 0!!!PKQXZ!7 ",
" 2!U. q!!!!!!!8 C!!u @a =Q!!V  f!x G!!!!!F F!6 ",
" 3!U. f!!!!!!RnL!!Q@XH8 S!!!a <!!fv!!!!!!a F!8 ",
" 3!U. M!!!!!!!!!!!M V!X.E!!!0.U!!!!!!!!!nO A!8 ",
" 2!U. NFMQ!!!!!!!!84!!h.E!!!MB!!!!!!!Lu5   A!7 ",
" 3!U. .  ;J!!!!!!!PK!!!KQ!!!!!!!!!!!Q:     F!6 ",
" 2!Y.     XJEv!!!!!!!!!!!!!!!!!!!!c!6      A!8 ",
" 2!U.      f-8!!!!!!!!!!!!!!!UR!!V:u       S!6 ",
" 3!Y.      . r!!!!!!G!!!!!!!!>C!!,         D!8 ",
" 3!U.        $tlVLEv eW!!!!!n sM:          S!7 ",
" 2!U.             o. :E!!!!E,..            S!7 ",
" 2!Y                3W!!!!!QZX8            F!7 ",
" 2!U. =,           OU!!!!!!!01z            A!7 ",
" 3!U. XkvO          oV!!!!!L b2            H!8 ",
" 2!U.  .AE3         ;E!!!Efo%2            k!!8 ",
" 3!U.   XLR.       oU!!!U@  .           .M!!!6 ",
" 2!U.    @Er@r   X8H!!!!RX             XV!!!!8 ",
" 3!U.     :G@T8*fU!!KE!!!,            @H!!!!!6 ",
" 2!Y.      8qA!!!!!Qa!!!!i           *P!!!!!!8 ",
" 2!U.       =m!!U!!vl!!!!V          :R!!!!!!!7 ",
" 3!Y.        uF5G!Q,U!!!!RX        3W!!!!!!!!7 ",
" 3!U.    %r: . z!!v:!!!!!!:       q!!!!!!!!!!7 ",
" 2!U      -gX:l!!HXb!Ex!!!i:$    t!!!!!!!!!!!8 ",
" 2!Y.    oqmY!!!F.0!!r E!!!Q%   f!!!!!!!!!!!!6 ",
" 3!U.    .qZQ!!V.:!!v+f3yAQv   c!!!!!!!!!!!!!8 ",
" 2!U   X%25%-ik.@Gl: Xaf  %O XM!!!!!!!!!!!!!!6 ",
" 3!U  3jFE!!L,  OX     .    oA!!!!!!!!!!!!!!!8 ",
" 2!QVVVVAHU!QVVVBBVVBVVVVVVVU!!!!!!!!!!!!!!!!8 ",
" 3!!!!!!!!!!!!!!!!!!!!!!!!!!!!!!!!!!!!!!!!!!!8 ",
" O9899808899008099q0900qq00qqqqqqqqrqreerrrrr@ ",
"                                               "
};
