/* XPM */
static char *_f9d4c966acd47afeb6f2bb0a5c3b74b[] = {
/* columns rows colors chars-per-pixel */
"80 80 169 2 ",
"   c #0C0C0A",
".  c #121210",
"X  c #1B1B19",
"o  c #1B1B1A",
"O  c #2A2A29",
"+  c #2E2E2D",
"@  c #30302F",
"#  c #31312F",
"$  c #313130",
"%  c #323230",
"&  c #323231",
"*  c #333331",
"=  c #343433",
"-  c #353533",
";  c #353534",
":  c #363635",
">  c #373735",
",  c #373736",
"<  c #383837",
"1  c #393937",
"2  c #3A3A38",
"3  c #3A3A39",
"4  c #3B3B39",
"5  c #3B3B3A",
"6  c #3C3C3A",
"7  c #3C3C3B",
"8  c #3D3D3C",
"9  c #3E3E3C",
"0  c #3E3E3D",
"q  c #3F3F3E",
"w  c #40403F",
"e  c #41413F",
"r  c #424241",
"t  c #434342",
"y  c #444442",
"u  c #444443",
"i  c #454544",
"p  c #464645",
"a  c #474746",
"s  c #484847",
"d  c #494948",
"f  c #4A4A49",
"g  c #4B4B4A",
"h  c #4C4C4B",
"j  c #4D4D4B",
"k  c #4D4D4C",
"l  c #4E4E4D",
"z  c #4F4F4E",
"x  c gray31",
"c  c #50504F",
"v  c #515150",
"b  c #525251",
"n  c #535352",
"m  c #545453",
"M  c #555553",
"N  c #555554",
"B  c #565655",
"V  c #575756",
"C  c #585857",
"Z  c #595958",
"A  c #5A5A59",
"S  c #5A5A5A",
"D  c #5B5B5A",
"F  c #5B5B5B",
"G  c #5C5C5B",
"H  c #5D5D5C",
"J  c #5F5F5F",
"K  c #60605F",
"L  c #616160",
"P  c #626261",
"I  c #626262",
"U  c #646462",
"Y  c #646463",
"T  c #656564",
"R  c #676767",
"E  c #686867",
"W  c #6A6A69",
"Q  c #6A6A6A",
"!  c #6B6B6A",
"~  c #70706F",
"^  c #71716F",
"/  c #757574",
"(  c gray46",
")  c #767676",
"_  c #7B7B7A",
"`  c #7B7B7B",
"'  c #7C7C7B",
"]  c #7D7D7C",
"[  c #80807F",
"{  c #838382",
"}  c #838383",
"|  c #848483",
" . c #878786",
".. c #898988",
"X. c #8A8A89",
"o. c #8D8D8D",
"O. c #8E8E8D",
"+. c #8E8E8E",
"@. c #8F8F8E",
"#. c #929292",
"$. c #949493",
"%. c gray58",
"&. c gray60",
"*. c #A0A0A0",
"=. c gray63",
"-. c #A2A2A1",
";. c gray64",
":. c #A4A4A3",
">. c #A4A4A4",
",. c gray65",
"<. c #A8A8A7",
"1. c gray66",
"2. c #AAAAA9",
"3. c gray67",
"4. c #ACACAC",
"5. c #AEAEAD",
"6. c #AFAFAE",
"7. c #AFAFAF",
"8. c #B1B1B0",
"9. c #B1B1B1",
"0. c #B2B2B1",
"q. c #B3B3B2",
"w. c gray70",
"e. c #B7B7B7",
"r. c #B9B9B9",
"t. c #BCBCBB",
"y. c gray74",
"u. c #BFBFBE",
"i. c #C1C1C1",
"p. c gray77",
"a. c #C5C5C4",
"s. c #C5C5C5",
"d. c #C7C7C6",
"f. c #CACACA",
"g. c #CBCBCA",
"h. c #CECECD",
"j. c gray82",
"k. c #D2D2D2",
"l. c LightGray",
"z. c #D7D7D6",
"x. c #D7D7D7",
"c. c #D8D8D8",
"v. c #D9D9D8",
"b. c #DADAD9",
"n. c gainsboro",
"m. c gray87",
"M. c gray88",
"N. c #E1E1E1",
"B. c #E2E2E1",
"V. c #E7E7E7",
"C. c #E7E7E8",
"Z. c #EAEAEA",
"A. c #EBEBEA",
"S. c gray92",
"D. c #EEEEED",
"F. c #EFEFEE",
"G. c #EFEFEF",
"H. c #F1F1F1",
"J. c #F4F4F4",
"K. c #F4F4F5",
"L. c gray96",
"P. c #F6F6F6",
"I. c gray97",
"U. c #F8F8F8",
"Y. c #FCFCFB",
"T. c #FDFDFD",
"R. c #FEFEFE",
"E. c gray100",
"W. c None",
/* pixels */
"W.W.W.W.W.W.W.W.W.W.W.W.W.W.W.W.W.W.W.W.W.W.W.W.W.W.W.W.W.W.W.W.W.W.W.W.V V V V V V V V W.W.W.W.W.W.W.W.W.W.W.W.W.W.W.W.W.W.W.W.W.W.W.W.W.W.W.W.W.W.W.W.W.W.W.W.",
"W.W.W.W.W.W.W.W.W.W.W.W.W.W.W.W.W.W.W.W.W.W.W.W.W.W.W.V V V V V V V V V V V V V V V V V V V V V V V V V V W.W.W.W.W.W.W.W.W.W.W.W.W.W.W.W.W.W.W.W.W.W.W.W.W.W.W.",
"W.W.W.W.W.W.W.W.W.W.W.W.W.W.W.W.W.W.W.W.W.W.V V V V V V V V V V V V V V V V V V V V V V V V V V V V V V V V V V V V W.W.W.W.W.W.W.W.W.W.W.W.W.W.W.W.W.W.W.W.W.W.",
"W.W.W.W.W.W.W.W.W.W.W.W.W.W.W.W.W.W.W.V V V V V V V V V V V V V V V V V V V V V V V V V V V V V V V V V V V V V V V V V V W.W.W.W.W.W.W.W.W.W.W.W.W.W.W.W.W.W.W.",
"W.W.W.W.W.W.W.W.W.W.W.W.W.W.W.W.W.V V V V V V V V V V V V V V V V V V V V V V V V V V V V V V V V V V V V V V V V V V V V V V W.W.W.W.W.W.W.W.W.W.W.W.W.W.W.W.W.",
"W.W.W.W.W.W.W.W.W.W.W.W.W.W.W.V V V V V V V V V V V V V V V V V V V V V V V V V V V V V V V V V V V V V V V V V V V V V V V V V V W.W.W.W.W.W.W.W.W.W.W.W.W.W.W.",
"W.W.W.W.W.W.W.W.W.W.W.W.W.V V V V V V V V V V V V V V V V V V V V V V V V V V V V V V V V V V V V V V V V V V V V V V V V V V V V V V W.W.W.W.W.W.W.W.W.W.W.W.W.",
"W.W.W.W.W.W.W.W.W.W.W.W.V V V V V V V V V V V V V V V V V V V V V V V V V V V V V V V V V V V V V V V V V V V V V V V V V V V V V V V V W.W.W.W.W.W.W.W.W.W.W.W.",
"W.W.W.W.W.W.W.W.W.W.V V V V V V V V V V V V V V V V V V V V V V V V V V V V V V V V V V V V V V V V V V V V V V V V V V V V V V V V V V V V W.W.W.W.W.W.W.W.W.W.",
"W.W.W.W.W.W.W.W.W.V V V V V V V V V V V V V V V V V V V V V V V V V V V V V V C C V V V V V V V V V V V V V V V V V V V V V V V V V V V V V V W.W.W.W.W.W.W.W.W.",
"W.W.W.W.W.W.W.W.V V V V V V V V V V V V V V V V V V V V V V V V V V V V C D m 5 1 m D V C V V C V V V V V V V V V V V V V V V V V V V V V V V V W.W.W.W.W.W.W.W.",
"W.W.W.W.W.W.W.W.V V V V V V V V V V V V V V V V V V V V V V V V V V V D C 1 7 &.&.7 5 C C V V C V V V V V V V V V V V V V V V V V V V V V V V V W.W.W.W.W.W.W.W.",
"W.W.W.W.W.W.W.V V V V V V V V V V V V V V V V V V V V V V V V V V V D u % ! h.E.E.h.! @ u D C C V V V V V V V V V V V V V V V V V V V V V V V V V W.W.W.W.W.W.W.",
"W.W.W.W.W.W.V V V V V V V V V V V V V V V V V V V V V V V V V V D j @ V w.E.E.E.E.E.E.w.C @ l D V V V V V V V V V V V V V V V V V V V V V V V V V V W.W.W.W.W.W.",
"W.W.W.W.W.W.V V V V V V V V V V V V V V V V V V V V V V V V D V = a &.U.E.E.E.E.E.E.E.E.U.&.u = m D V V V V V V V V V V V V V V V V V V V V V V V V W.W.W.W.W.W.",
"W.W.W.W.W.V V V V V V V V V V V V V V V V V V V V V V V V D 5 > ] M.E.E.E.E.l.I U l.E.E.E.E.M.] 1 5 D C V V V V V V V V V V V V V V V V V V V V V V V W.W.W.W.W.",
"W.W.W.W.W.V V V V V V V V V V V V V V V V V V V V V V F a % R p.E.E.E.E.Z. .5 5 5 0  .Z.E.E.E.E.d.I % a D V V V V V V V V V V V V V V V V V V V V V V V W.W.W.W.",
"W.W.W.W.V V V V V V V V V V V V V V V V V V V V V D l % n 2.E.E.E.E.E.*.d % n D D n % j *.E.E.E.E.E.2.n @ c D V V V V V V V V V V V V V V V V V V V V V W.W.W.W.",
"W.W.W.W.V V V V V V V V V V V V V V V V V V V D V > e #.K.E.E.E.E.t.J + d J V V V V D d @ J t.E.E.E.E.K.#.e > C D V V V V V V V V V V V V V V V V V V V W.W.W.W.",
"W.W.W.V V V V V V V V V V V V V V V V V V V D 0 > ) b.E.E.E.E.x.) = e D V V V V V V V V D 0 = / x.E.E.E.E.b.) > 0 D V V V V V V V V V V V V V V V V V V V W.W.W.",
"W.W.W.V V V V V V V V V V V V V V V V V D d @ K y.E.E.E.E.G.@.0 > V C C V V V V V V V V V C V > 0 @.G.E.E.E.E.y.K @ d D V V V V V V V V V V V V V V V V V W.W.W.",
"W.W.W.V V V V V V V V V V V V V V V D n % j >.E.E.E.E.E.>.l % n D V V V V V V V V V V V V V V D n % l 1.E.E.E.E.E.:.l % n D V V V V V V V V V V V V V V V W.W.W.",
"W.W.V V V V V V V V V V V V V V C V 1 0 ..F.E.E.E.E.p.I % d F V V V V V V V V V V V V V V V V V V D a % I p.E.E.E.E.F...5 5 V D V V V V V V V V V V V V V V W.W.",
"W.W.V V V V V V V V V V V V C D r = ^ l.E.E.E.E.n.` > 0 D D V V V V V V V V V V V V V V V V V V V V C D 0 > ` n.E.E.E.E.l.^ % r D V V V V V V V V V V V V V W.W.",
"W.W.V V V V V V V V V V V V V > D e.E.E.E.E.P.#.u = V D V V V V V V V V V V V V V V V V V V V V V V V V D V % r $.P.E.E.E.E.e.D > V V V V V V V V V V V V V W.W.",
"W.W.V V V V V V V V V V V V a #.Y.E.E.E.P.w.m % l D V V V V V V V V V V V V V V V V V V V V V V V V V V V C D l % m w.P.E.E.E.Y.#.a V V V V V V V V V V V V W.W.",
"W.W.V V V V V V V V V V V n a F.E.E.E.E.[   5 I V V V V V V V V V V V V V V V V V V V V V V V V V V V V V V V V J 5   [ E.E.E.E.F.a n V V V V V V V V V V V W.W.",
"W.V V V V V V V V V V V V n a z.E.E.E.E.M.&.a % m D V V V V V V V V V V V V V V V V V V V V V V V V V V V V D V = a &.M.E.E.E.E.z.a m V V V V V V V V V V V V W.",
"W.V V V V V V V V V V V V m a z.E.E.E.E.E.E.M.] > 7 D V V V V V V V V V V V V V V V V V V V V V V V V V V D 5 > ] M.E.E.E.E.E.E.z.a m V V V V V V V V V V V V W.",
"W.V V V V V V V V V V V V m a z.E.Y.6.n.E.E.E.E.d.R % a F V V V V V V V V V V V V V V V V V V V V V V D a @ R d.E.E.E.E.b.6.E.E.z.a m V V V V V V V V V V V V W.",
"W.V V V V V V V V V V V V m a z.E.E.I O -.E.E.E.E.E.6.l % l D V V V V V V V V V V V V V V V V V V D l % c 6.E.E.E.E.E.-.O I E.E.z.a m V V V V V V V V V V V V W.",
"W.V V V V V V V V V V V V m a z.E.E. .+ % J y.E.E.E.E.G.@.r > V C V V V V V V V V V V V V V V D V > w @.H.E.E.E.E.y.J @ +  .E.E.z.a m V V V V V V V V V V V V W.",
"W.V V V V V V V V V V V V m a z.E.E.} 5 F w % ) z.E.E.E.E.b.) = e D D V V V V V V V V V V V D 0 > ) c.E.E.E.E.z.) % 0 F 7 } E.E.z.a m V V V V V V V V V V V V W.",
"W.V V V V V V V V V V V V m a z.E.E.} 5 C D C > 0 @.F.E.E.E.E.p.K @ d D V V V V V V V V D s @ I p.E.E.E.E.G.@.0 > D D C 5 } E.E.z.a m V V V V V V V V V V V V W.",
"W.V V V V V V V V V V V V m a z.E.E.} 5 C V V D x % l 2.E.E.E.E.E.-.l % n D V V V V D n % l -.E.E.E.E.E.2.l % l D V V C 5 } E.E.z.a m V V V V V V V V V V V V W.",
"W.V V V V V V V V V V V V m a z.E.E.} 5 C V V V V D a % U p.E.E.E.E.Z...5 > D V D C > 7 ..Z.E.E.E.E.d.U % a D V V V V V 5 } E.E.z.a m V V V V V V V V V V V V W.",
"V V V V V V V V V V V V V m a z.E.E.} 5 C V V V V V C D 7 1 ` n.E.E.E.E.l.~ % a a % ^ l.E.E.E.E.n.` > 0 D V V V V V V C 5 } E.E.z.a m V V V V V V V V V V V V V ",
"V V V V V V V V V V V V V m a z.E.E.} 5 C V V V V V V V C V = r #.P.E.E.E.E.r.l l r.E.E.E.E.P.$.r = V D V V V V V V V C 5 } E.E.z.a m V V V V V V V V V V V V V ",
"V V V V V V V V V V V V V m a z.E.E.} 1 C V V V V V V V V V D l % V w.E.E.E.E.P.P.E.E.E.E.w.m @ c D V V V V V V V V V C 7 { E.E.z.a m V V V V V V V V V V V V V ",
"V V V V V V V V V V V V V m a z.E.E.} 7 C V V V V V V V V V V V D r @ ! f.E.E.E.E.E.E.f.! @ u D V V V V V V V V V V V C 7 [ E.E.z.a m V V V V V V V V V V V V V ",
"V V V V V V V V V V V V V m a z.E.E.{ 7 C C m C V V V V V V V V V D V 5 5 { V.E.E.V.{ 5 7 C C C V V V V V V V V V V V C 5 [ E.E.z.a m V V V V V V V V V V V V V ",
"V V V V V V V V V V V V V m a z.E.E.[ 7 C C C C V V V V V V V V V V V D m X <.E.E.<.X m C V C C V V V V V V V V V V V C 5 } E.E.z.a m V V V V V V V V V V V V V ",
"V V V V V V V V V V V V V m a z.E.E.} 7 C C m C V V V V V V V V V V V V C 1 7.E.E.7.1 C V V V V V V V V V V V V V V V C 5 } E.E.z.a m V V V V V V V V V V V V V ",
"V V V V V V V V V V V V V m a z.E.E.[ 7 C m C C V V V V V V V V V V V V C 1 w.E.E.w.1 C V V V V V V V V V V V V V V V C 5 } E.E.z.a m V V V V V V V V V V V V V ",
"W.V V V V V V V V V V V V m a z.E.E.{ 7 C C m C V V V V V V V V V V V V V 1 7.E.E.w.1 C C C V V V V V V V V V V V V V C 5 [ E.E.z.a m V V V V V V V V V V V V W.",
"W.V V V V V V V V V V V V m a z.E.E.{ 1 C C C C V V V V V V V V V V V V V 1 w.E.E.7.1 C V V V V V V V V V V V V V V V C 5 } E.E.z.a m V V V V V V V V V V V V W.",
"W.V V V V V V V V V V V V m a z.E.E.{ 7 C C m C V V V V V V V V V V V V D 5 w.E.E.7.1 C V V V V V V V V V V V V V V V C 5 } E.E.z.a m V V V V V V V V V V V V W.",
"W.V V V V V V V V V V V V m a z.E.E.{ 7 C m C C V V V V V V V V V V V V V > 7.E.E.w.1 C V V V V V V V V V V V V V V V C 5 } E.E.z.a m V V V V V V V V V V V V W.",
"W.V V V V V V V V V V V V m a z.E.E.} 5 V V V V V V V V V V V V V V V V C 1 w.E.E.q.1 C V V V V V V V V V V V V V V V C 5 } E.E.z.a m V V V V V V V V V V V V W.",
"W.V V V V V V V V V V V V m a z.E.E.} 5 V V V V V V V V V V V V V V V V C 1 7.E.E.7.1 C V V V V V V V V V V V V V V V C 5 } E.E.z.a m V V V V V V V V V V V V W.",
"W.V V V V V V V V V V V V m a z.E.E.} 5 V V V V V V V V V V V V V V V V C 1 7.E.E.w.1 C V V V V V V V V V V V V V V V C 7 [ E.E.z.a m V V V V V V V V V V V V W.",
"W.V V V V V V V V V V V V m a z.E.E.~ > D V V V V V V V V V V V V V C C C 1 w.E.E.7.1 C V V V V V V V V V V V V V V V D = ^ E.E.z.a m V V V V V V V V V V V V W.",
"W.V V V V V V V V V V V V m a z.E.E.*.O 5 D D V V V V V V V V V V V V V C 1 w.E.E.7.1 C V V V V V V V V V V V V V C C 5 + *.E.E.z.a m V V V V V V V V V V V V W.",
"W.W.V V V V V V V V V V V n a F.E.E.E.l.! % u D V V V V V V V V V V V V C 1 7.E.E.w.1 C V V V V V V V V V V V C D a % ! l.E.E.E.F.u n V V V V V V V V V V V W.W.",
"W.W.V V V V V V V V V V V V a #.Y.E.E.E.E.6.m @ l D V V V V V V V V V V C 1 w.E.E.7.1 C V V V V V V V V V C D j @ m 6.E.E.E.E.Y.%.a V V V V V V V V V V V V W.W.",
"W.W.V V V V V V V V V V V V V > D e.E.E.E.E.P.%.u = V D V V V V V V V V C 1 7.E.E.w.1 C V V V V V V V V C V = u $.P.E.E.E.E.r.C > V V V V V V V V V V V V V W.W.",
"W.W.V V V V V V V V V V V V V D r % ^ l.E.E.E.E.n.` > 0 D C V V V V V V C 1 7.E.E.7.1 C C C V V V V V D 0 > ] n.E.E.E.E.l.^ = r D C V V V V V V V V V V V V W.W.",
"W.W.V V V V V V V V V V V V V V D V 5 0  .F.E.E.E.E.d.I % a D V V V V V C 1 w.E.E.w.1 C V C V V V F a % I d.E.E.E.E.F...0 1 C C V V V V V V V V V V V V V V W.W.",
"W.W.W.V V V V V V V V V V V V V V V D n % l -.E.E.E.E.E.1.l % n D V V V C 1 7.E.E.7.1 C V C V D n @ l 2.E.E.E.E.E.:.j % n D V V V V V V V V V V V V V V V W.W.W.",
"W.W.W.V V V V V V V V V V V V V V V V V D d % J y.E.E.E.E.G.@.0 > V C C C 1 w.E.E.w.1 C V C V > 0 @.F.E.E.E.E.y.K @ d D V V V V V V V V V V V V V V V V V W.W.W.",
"W.W.W.V V V V V V V V V V V V V V V V V V V D 0 > ) b.E.E.E.E.z.) > e D C 1 w.E.E.w.> D D 0 % / b.E.E.E.E.b.) > 0 D C V V V V V V V V V V V V V V V V V V W.W.W.",
"W.W.W.W.V V V V V V V V V V V V V V V V V V V D V > e #.K.E.E.E.E.t.D @ d 0 7.E.E.w.7 d @ J y.E.E.E.E.K.#.r > V D V V V V V V V V V V V V V V V V V V V W.W.W.W.",
"W.W.W.W.V V V V V V V V V V V V V V V V V V V V V D c @ n 2.E.E.E.E.E.*.j . 7.E.E.6.. d -.E.E.E.E.E.2.n @ l D V V V V V V V V V V V V V V V V V V V V V W.W.W.W.",
"W.W.W.W.W.V V V V V V V V V V V V V V V V V V V V V V D a % U d.E.E.E.E.A.E >.E.E.>.! Z.E.E.E.E.d.R + a D V V V V V V V V V V V V V V V V V V V V V V V W.W.W.W.",
"W.W.W.W.W.V V V V V V V V V V V V V V V V V V V V V V V C D 5 1 ' M.E.E.E.E.K.E.E.K.E.E.E.E.M.' 1 7 D C V V V V V V V V V V V V V V V V V V V V V V V W.W.W.W.W.",
"W.W.W.W.W.W.V V V V V V V V V V V V V V V V V V V V V V V V D V = a &.Y.E.E.E.E.E.E.E.E.U.&.a = m D V V V V V V V V V V V V V V V V V V V V V V V V W.W.W.W.W.W.",
"W.W.W.W.W.W.V V V V V V V V V V V V V V V V V V V V V V V V V V D j @ V w.E.E.E.E.E.E.w.V @ j D V V V V V V V V V V V V V V V V V V V V V V V V V V W.W.W.W.W.W.",
"W.W.W.W.W.W.W.V V V V V V V V V V V V V V V V V V V V V V V V V V C D u @ ! h.E.E.h.! @ u D C V V V V V V V V V V V V V V V V V V V V V V V V V V W.W.W.W.W.W.W.",
"W.W.W.W.W.W.W.W.V V V V V V V V V V V V V V V V V V V V V V V V V V V C C 5 7 &.&.7 1 C D V V V V V V V V V V V V V V V V V V V V V V V V V V V W.W.W.W.W.W.W.W.",
"W.W.W.W.W.W.W.W.V V V V V V V V V V V V V V V V V V V V V V V V V V V V V D m 5 5 m D V V V V V V V V V V V V V V V V V V V V V V V V V V V V V W.W.W.W.W.W.W.W.",
"W.W.W.W.W.W.W.W.W.V V V V V V V V V V V V V V V V V V V V V V V V V V V V V V C C V V V V V V V V V V V V V V V V V V V V V V V V V V V V V V W.W.W.W.W.W.W.W.W.",
"W.W.W.W.W.W.W.W.W.W.V V V V V V V V V V V V V V V V V V V V V V V V V V V V V V V V V V V V V V V V V V V V V V V V V V V V V V V V V V V V W.W.W.W.W.W.W.W.W.W.",
"W.W.W.W.W.W.W.W.W.W.W.W.V V V V V V V V V V V V V V V V V V V V V V V V V V V V V V V V V V V V V V V V V V V V V V V V V V V V V V V V W.W.W.W.W.W.W.W.W.W.W.W.",
"W.W.W.W.W.W.W.W.W.W.W.W.W.V V V V V V V V V V V V V V V V V V V V V V V V V V V V V V V V V V V V V V V V V V V V V V V V V V V V V V W.W.W.W.W.W.W.W.W.W.W.W.W.",
"W.W.W.W.W.W.W.W.W.W.W.W.W.W.W.V V V V V V V V V V V V V V V V V V V V V V V V V V V V V V V V V V V V V V V V V V V V V V V V V V W.W.W.W.W.W.W.W.W.W.W.W.W.W.W.",
"W.W.W.W.W.W.W.W.W.W.W.W.W.W.W.W.W.V V V V V V V V V V V V V V V V V V V V V V V V V V V V V V V V V V V V V V V V V V V V V V W.W.W.W.W.W.W.W.W.W.W.W.W.W.W.W.W.",
"W.W.W.W.W.W.W.W.W.W.W.W.W.W.W.W.W.W.W.V V V V V V V V V V V V V V V V V V V V V V V V V V V V V V V V V V V V V V V V V V W.W.W.W.W.W.W.W.W.W.W.W.W.W.W.W.W.W.W.",
"W.W.W.W.W.W.W.W.W.W.W.W.W.W.W.W.W.W.W.W.W.W.V V V V V V V V V V V V V V V V V V V V V V V V V V V V V V V V V V V V W.W.W.W.W.W.W.W.W.W.W.W.W.W.W.W.W.W.W.W.W.W.",
"W.W.W.W.W.W.W.W.W.W.W.W.W.W.W.W.W.W.W.W.W.W.W.W.W.W.W.V V V V V V V V V V V V V V V V V V V V V V V V V V W.W.W.W.W.W.W.W.W.W.W.W.W.W.W.W.W.W.W.W.W.W.W.W.W.W.W.",
"W.W.W.W.W.W.W.W.W.W.W.W.W.W.W.W.W.W.W.W.W.W.W.W.W.W.W.W.W.W.W.W.W.W.W.W.V V V V V V V V W.W.W.W.W.W.W.W.W.W.W.W.W.W.W.W.W.W.W.W.W.W.W.W.W.W.W.W.W.W.W.W.W.W.W.W."
};
