/* XPM */
static char *_4241ecf73724b33a8adecb6566aec77[] = {
/* columns rows colors chars-per-pixel */
"16 16 66 1 ",
"  c #272725",
". c #2B2B2A",
"X c #2C2C2A",
"o c #323231",
"O c #343433",
"+ c #353533",
"@ c #353534",
"# c #363635",
"$ c #3B3B39",
"% c #3B3B3A",
"& c #3C3C3A",
"* c #3C3C3B",
"= c #3D3D3C",
"- c #40403F",
"; c #444442",
": c #464645",
"> c #494948",
", c #4B4B4A",
"< c #4C4C4B",
"1 c #4D4D4C",
"2 c #4E4E4D",
"3 c #525251",
"4 c #535352",
"5 c #565655",
"6 c #575756",
"7 c #585857",
"8 c #595958",
"9 c #5A5A59",
"0 c #5F5F5F",
"q c #60605F",
"w c #616160",
"e c #666665",
"r c #676766",
"t c #777776",
"y c #777777",
"u c #7A7A79",
"i c #7B7B7B",
"p c #7E7E7D",
"a c #818180",
"s c #8A8A89",
"d c #919190",
"f c #979796",
"g c #9A9A99",
"h c #9F9F9E",
"j c #A5A5A4",
"k c #A8A8A7",
"l c #AEAEAD",
"z c #AFAFAE",
"x c #B2B2B1",
"c c #B3B3B2",
"v c #B4B4B3",
"b c #B7B7B6",
"n c #B7B7B7",
"m c #BBBBBA",
"M c #BCBCBC",
"N c #BFBFBE",
"B c gray76",
"V c #C6C6C6",
"C c #D0D0D0",
"Z c #D1D1D0",
"A c LightGray",
"S c #D5D5D5",
"D c gray86",
"F c gray91",
"G c gray100",
"H c None",
/* pixels */
"HHHH66666676HHHH",
"HH66681-=<8666HH",
"H6683OwNNw#3866H",
"H78$,kCffZk>$87H",
"66,tnxw##wnnt,66",
"616GF#X88.OFG616",
"6,txdAh&&hZdxt,6",
"6<uzXeBnnBeXzu<6",
"6<yx3: VV :3vt<6",
"6<pz=6$gg&8=zp,6",
"61eDaoojkooaDe16",
"66,uZM;ss;nZu,66",
"H78$,knSSnk,$88H",
"H6683#wNN0O3866H",
"HH66681&=18766HH",
"HHHH66766766HHHH"
};
