/* XPM */
static char *_2bb0b88863b4863f62e333c23d56d31[] = {
/* columns rows colors chars-per-pixel */
"48 48 64 1 ",
"  c #9A9A9A",
". c gray61",
"X c #A0A0A0",
"o c gray63",
"O c #A2A2A2",
"+ c gray64",
"@ c #A4A4A4",
"# c #A5A5A5",
"$ c #A7A7A7",
"% c gray66",
"& c #A9A9A9",
"* c #AAAAAA",
"= c gray67",
"- c #ACACAC",
"; c gray68",
": c #AEAEAE",
"> c #AFAFAF",
", c gray69",
"< c #B1B1B1",
"1 c #B2B2B2",
"2 c gray70",
"3 c #B4B4B4",
"4 c gray71",
"5 c #B6B6B6",
"6 c #B7B7B7",
"7 c gray72",
"8 c #B9B9B9",
"9 c gray73",
"0 c #BBBBBB",
"q c #BCBCBC",
"w c gray74",
"e c gray",
"r c gray75",
"t c #C0C0C0",
"y c #C1C1C1",
"u c gray76",
"i c #C3C3C3",
"p c gray77",
"a c #C5C5C5",
"s c #C6C6C6",
"d c gray78",
"f c #C8C8C8",
"g c gray79",
"h c #CACACA",
"j c #CBCBCB",
"k c gray80",
"l c #CDCDCD",
"z c #CECECE",
"x c gray81",
"c c #D0D0D0",
"v c gray82",
"b c #D2D2D2",
"n c LightGray",
"m c gray83",
"M c #D5D5D5",
"N c gray84",
"B c #D7D7D7",
"V c #D8D8D8",
"C c gray85",
"Z c #DADADA",
"A c gray86",
"S c gainsboro",
"D c #DDDDDD",
"F c gray87",
/* pixels */
"NNNVNVNNNVNVNNNVNVNNNVNVNNNVNVNNNVNVNNNVNVNNNVNN",
"NNVNNNVNVNNNVNVNNNVNVNNNVNVNNNVNVNNNVNVNNNVNVNNN",
"NVVVNVVNVVNVVVVVNVVNVVNVVVVVNVVNVVNVVVVVNVVNVVNV",
"VNVVVVVVVVVVVNVVVVVVVVVVVNVVVVVVVVVVVNVVVVVVVVVN",
"NNVNNVNNNVNVVNVNNNVNNVNVVNVNNVNNNVNVVNVNNNVNNVNN",
"VNVVNVVVVVNVVNVVVVVNVVNVVNVVNVVVVVNVVNVVVVVNVVVN",
"NVVVVVVNVVVVVNVVNVVVVVNVVNVVVVVNVVVVVNVVNVVVVVNV",
"NNVNNNVNVNNNVNVNNVNNNVNVVNVNNNVNVNNNVNVNNVNNNVNN",
"NVVVVVVVVVNVVVVVNVVVVVNVVNVVVVVNVVNVVNVVVVVNVVVN",
"VNVVNVVNVVVVVNVVVVVVVVSkkSVVVVVVVVVVVVVVNVVVVVNV",
"NNNVNVVNVNNNVNVVNNVVVN3OO1nSVVNNNVNNNNNVNVNNVNNN",
"VNVVNVVNVVVVVNVVNVVVtO1NN1O7VVVNVVVVVVVVNVVVVVNV",
"NVVVNVVVVVNVVVVVVVg@=kSVVSk:@pSVVVVVVVVVVVVVVVVN",
"NNVNNVNNVNNVNNVVn:@pVVNNVNVVp@:nVNNVNNNVNNNNNVNN",
"NVVVNVVVVVNVVVV7O7NVVVVVVVVVVV7O3NSVVNVVVVVVVVVN",
"VNVVVVVNVVNVVp@:nSVNVVNVVNVVNVVn1OtVVNVVNVVNVVNV",
"NNVNNNVNVVVn==gSNVNNVNNNVNVNNNVVSk==kVVNNNVNVNNN",
"VNVVVVVNVVV7 qNVVNVVVVVVVNVVVVVNVNq.3VVVVVVNVVVN",
"NVVVNVVVVVS71p1tNVVNVVNVVNVVNVVVt3p7=kVNNVVVVVNV",
"NNVNNVNNNVS73Snq3gVVNVNVVNVNVVg37nSq=3NVNVNNNVNN",
"NVVVVVVVVVS73SVVk37kSVNVVVVVn73gVVVq=:tVVVVNVVVN",
"VNVVNVVNVVV73SVVVVp1qNVVVVNt1tVVVVSq=11nVVVVVVNV",
"NNNVNVVNVNS73SVNNVVNq1pVVp3qNVVVNVS7@1=qVVVNVNNN",
"VNVVNVVNVVS73VVVVVVVVn7777kVVNVVVVSq@1:=kVVNVVVN",
"NVVVNVVNVVV73SVVVVVNVVVqqVVVNVVNVVSq=1=:7VVNVVVN",
"NNVNNVVNVNS73VVNNNVNVVSptSVVNVVNNVV7=::::gVVVNNN",
"NVVVNVVNVVS73SVVNVVNVVSptSVVNVVNVVS7=::=:1NVVVNV",
"VNVVVVVVVVS77SVVVVVVVVVppVVVVVVVVVSq=::::=tVNVVN",
"NNVNNVNNVNV73SVVNVNNVNVptVVNNVNNVNV7=::::::nVVVN",
"VNVVNVVVVVS73VVVNVVVVVVptVVVNVVVVVSq=1===:=7VVVV",
"NVVVVVVNVVS31SVVNVVNVVVppVVVVVVNNVS3=:::=::=kVNN",
"NNVNNNVNVVVk@:kSVNVNVVVppVVNNNVNSk1@3:=:::=:3NNN",
"NVVVVVVVVVNVg=O3NVVNVVSptVVVNVSN7O:3::::=:::=pVN",
"VNVVNVNNVVNVN11=@tVSVVVptSVVVVt@=11:=:=:=::==1NV",
"NNNVNVVNNVNVVp=11@=gSVVptVVSg=@11:=:=::::::::=tV",
"VNVVNVVNVVNVVV3::1:O1kFppSn1O11:=:=:::==:==:=::n",
"NVVVNVVVVVNVVVk::::1:OqttqO:1::=::=::=::=:::::=3",
"NNVNNVNNNVNVVVVq===:13=.O=3::::=:=::::=:::==:=::",
"NVVVNVVVVVNVVNVN1:=:=:1111::::::::====:::=::=:::",
"VNVVVVVNVVVVVNVVt=::=:::::=::==:=::::::=::=:::=:",
"NNNVNVNNVNNNVNVVV3::=::=:::=:==::==:=:::=::=:::=",
"NVVVNVVVVVVVVNVNVg=:=::===::::::::::::===::=:=::",
"VNVVVVVNVVVVVVVVVV3:::::::=:=::==::=:=::::::=:=:",
"NNNVNNVNVNNNNNNVVVk::==::=::=::==::=::=::==:::=:",
"VNVVNVVNVVVVVNVVNVVq=::=::=:=::::::=:=:::==:::=:",
"NVVVVVVVVVNVVVVVVVVN:=::=:=:::=::=:::=:=::::=:=:",
"NNVNNNVNVNNNVNVNNNVVp==::=:::=::=:=:::=:=::=:=::",
"NNNVNVNNNVNVNNNVNVVNN3:=:::=:=::::=:=:::=::=:::="
};
