/* XPM */
static char *_a6b819da3fc48a4e965925aee01e975[] = {
/* columns rows colors chars-per-pixel */
"32 32 53 1 ",
"  c gray64",
". c #A9A9A9",
"X c #AAAAAA",
"o c gray67",
"O c #ACACAC",
"+ c gray68",
"@ c #AEAEAE",
"# c #AFAFAF",
"$ c gray69",
"% c #B1B1B1",
"& c #B2B2B2",
"* c gray70",
"= c #B4B4B4",
"- c gray71",
"; c #B6B6B6",
": c #B7B7B7",
"> c gray72",
", c #B9B9B9",
"< c gray73",
"1 c #BBBBBB",
"2 c #BCBCBC",
"3 c gray74",
"4 c gray",
"5 c gray75",
"6 c #C0C0C0",
"7 c #C1C1C1",
"8 c gray76",
"9 c #C3C3C3",
"0 c gray77",
"q c #C5C5C5",
"w c #C6C6C6",
"e c gray78",
"r c #C8C8C8",
"t c gray79",
"y c #CACACA",
"u c #CBCBCB",
"i c gray80",
"p c #CDCDCD",
"a c #CECECE",
"s c gray81",
"d c #D0D0D0",
"f c gray82",
"g c LightGray",
"h c gray83",
"j c #D5D5D5",
"k c gray84",
"l c #D7D7D7",
"z c #D8D8D8",
"x c gray85",
"c c #DADADA",
"v c gray86",
"b c gainsboro",
"n c #DDDDDD",
/* pixels */
"kkxkkkkxkkxkxkkxkxkkxkkkkxkkxkxk",
"kxkxxxxkxxkxkxxkxkxxkxxxxkxxkxxk",
"xkxxxxxkxkxkxxxxkxkxkxxxxxkkxxkx",
"kxxkkkxxxkxxxkkxxxkxxxkkkxxxkkxk",
"kxxxxxxkxkxxkxxxxkxxkxxxxkkxxxxk",
"kxkkxkxxxkxkxxkxxxkxkxkxxxxxxkxk",
"xkxxkxkxxxkxxxx99kxxxkxxkxxkxkxk",
"kxkxxxkxkxxxxu&33&uxxxxkkxxkxxxk",
"xkxxkxxxkxxf--ibbf--fxxxxxxkxxxk",
"kxxkxxkxbk3&ubxxxxxu&1kxxkxkxkxk",
"kxxkxkkxw&9kxxkxxkxxx9&wxxxxxkxk",
"xkxxxxxw ubxkxxxxxxkxbi 9xkxxxxk",
"kxkxxkb9399fxxxkkxxxk993#kxkkkxk",
"xkxxxxx99bi1wkxxxxkw3ixw.9xxxxkx",
"kxkkkkb99xxxw1uxxu3wkxxw.&fxkxxk",
"kxxxxxx93bxxxk9339kxxxxw.#1xxxkx",
"kxxkxxx99bxxxxxwwxxxxkbw##.ixxxk",
"kkxxxxx99xkkkxxuuxxkxkxw.##-xkxk",
"xxkxkxx93bxxxxxuuxxkxxx9###.wxxk",
"kkxxkxx99bkxxkxuuxxxkxbw.###&kxk",
"xxkxkxx9-xxxxxxuwxxxkbk1.###.3xx",
"kxkxxxxx-.wxxxxuuxxbxw&.######ix",
"kkxxkxxxi#.-ibxuuxbi-.&#######1x",
"xxxkkxxxx3##.1kiuk1.#&########.u",
"kxxkxxxkxf&####--###.##########&",
"kxxkxkxxxxw.##&.################",
"kxxxkxkxkxk&.#.&################",
"kxkxxxkxxxxu###################.",
"kkkxxxkxxkxx1.##################",
"xxxxkxkxxxxxi###################",
"kxxkxxxxxkxkx9.#################",
"kkxkkkkkkxkxxf&#.#######.######."
};
