/* XPM */
static char *ce3527279e3746bc992b3db902808073[] = {
/* columns rows colors chars-per-pixel */
"80 80 77 1 ",
"  c #909090",
". c gray57",
"X c #929292",
"o c #939393",
"O c gray58",
"+ c #959595",
"@ c gray59",
"# c #979797",
"$ c #989898",
"% c gray60",
"& c #9A9A9A",
"* c #9B9B9B",
"= c gray61",
"- c #9D9D9D",
"; c gray62",
": c #A0A0A0",
"> c gray63",
", c #A2A2A2",
"< c gray64",
"1 c #A4A4A4",
"2 c #A5A5A5",
"3 c gray65",
"4 c #A7A7A7",
"5 c gray66",
"6 c #A9A9A9",
"7 c #AAAAAA",
"8 c gray67",
"9 c #ACACAC",
"0 c gray68",
"q c #AEAEAE",
"w c #AFAFAF",
"e c gray69",
"r c #B1B1B1",
"t c #B2B2B2",
"y c gray70",
"u c #B4B4B4",
"i c gray71",
"p c #B6B6B6",
"a c #B7B7B7",
"s c gray72",
"d c #B9B9B9",
"f c gray73",
"g c #BBBBBB",
"h c #BCBCBC",
"j c gray74",
"k c gray",
"l c gray75",
"z c #C0C0C0",
"x c #C1C1C1",
"c c gray76",
"v c #C3C3C3",
"b c gray77",
"n c #C5C5C5",
"m c #C6C6C6",
"M c gray78",
"N c #C8C8C8",
"B c gray79",
"V c #CACACA",
"C c #CBCBCB",
"Z c gray80",
"A c #CDCDCD",
"S c #CECECE",
"D c gray81",
"F c #D0D0D0",
"G c gray82",
"H c #D2D2D2",
"J c LightGray",
"K c gray83",
"L c #D5D5D5",
"P c gray84",
"I c #D7D7D7",
"U c #D8D8D8",
"Y c gray85",
"T c #DADADA",
"R c gray86",
"E c gainsboro",
"W c #DDDDDD",
/* pixels */
"PPPPPPPPPPPPPPPPPPPPPPPPPPPPPPPPPPPPPPPPPPPPPPPPPPPPPPPPPPPPPPPPPPPPPPPPPPPPPPPP",
"PPPPPPPPPPPPPPPPPPPPPPPPPPPPPPPPPPPPPPPPPPPPPPPPPPPPPPPPPPPPPPPPPPPPPPPPPPPPPPPP",
"PPPPPPPPPPPPPPPPPPPPPPPPPPPPPPPPPPPPPPPPPPPPPPPPPPPPPPPPPPPPPPPPPPPPPPPPPPPPPPPP",
"PPPPPPPPPPPPPPPPPPPPPPPPPPPPPPPPPPPPPPPPPPPPPPPPPPPPPPPPPPPPPPPPPPPPPPPPPPPPPPPP",
"PPPPPPPPPPPPPPPPPPPPPPPPPPPPPPPPPPPPPPPPPPPPPPPPPPPPPPPPPPPPPPPPPPPPPPPPPPPPPPPP",
"PPPPPPPPPPPPPPPPPPPPPPPPPPPPPPPPPPPPPPPPPPPPPPPPPPPPPPPPPPPPPPPPPPPPPPPPPPPPPPPP",
"PPPPPPPPPPPPPPPPPPPPPPPPPPPPPPPPPPPPPPPPPPPPPPPPPPPPPPPPPPPPPPPPPPPPPPPPPPPPPPPP",
"PPPPPPPPPPPPPPPPPPPPPPPPPPPPPPPPPPPPPPPPPPPPPPPPPPPPPPPPPPPPPPPPPPPPPPPPPPPPPPPP",
"PPPPPPPPPPPPPPPPPPPPPPPPPPPPPPPPPPPPPPPPPPPPPPPPPPPPPPPPPPPPPPPPPPPPPPPPPPPPPPPP",
"PPPPPPPPPPPPPPPPPPPPPPPPPPPPPPPPPPPPPPPPPPPPPPPPPPPPPPPPPPPPPPPPPPPPPPPPPPPPPPPP",
"PPPPPPPPPPPPPPPPPPPPPPPPPPPPPPPPPPPPPPPPPPPPPPPPPPPPPPPPPPPPPPPPPPPPPPPPPPPPPPPP",
"PPPPPPPPPPPPPPPPPPPPPPPPPPPPPPPPPPPPPPPPPPPPPPPPPPPPPPPPPPPPPPPPPPPPPPPPPPPPPPPP",
"PPPPPPPPPPPPPPPPPPPPPPPPPPPPPPPPPPPPPPPPPPPPPPPPPPPPPPPPPPPPPPPPPPPPPPPPPPPPPPPP",
"PPPPPPPPPPPPPPPPPPPPPPPPPPPPPPPPPPPPPPPPPPPPPPPPPPPPPPPPPPPPPPPPPPPPPPPPPPPPPPPP",
"PPPPPPPPPPPPPPPPPPPPPPPPPPPPPPPPPPPPPPPPUPPPPPPPPPPPPPPPPPPPPPPPPPPPPPPPPPPPPPPP",
"PPPPPPPPPPPPPPPPPPPPPPPPPPPPPPPPPPPPPPUUUUPPPPPPPPPPPPPPPPPPPPPPPPPPPPPPPPPPPPPP",
"PPPPPPPPPPPPPPPPPPPPPPPPPPPPPPPPPPPPPUF05DUPPPPPPPPPPPPPPPPPPPPPPPPPPPPPPPPPPPPP",
"PPPPPPPPPPPPPPPPPPPPPPPPPPPPPPPPPPPUPf&&&+pPUPPPPPPPPPPPPPPPPPPPPPPPPPPPPPPPPPPP",
"PPPPPPPPPPPPPPPPPPPPPPPPPPPPPPPPPUUM=+0FFe.&cPUPPPPPPPPPPPPPPPPPPPPPPPPPPPPPPPPP",
"PPPPPPPPPPPPPPPPPPPPPPPPPPPPPPPUUD5.<MUUUWV4.4VWUPPPPPPPPPPPPPPPPPPPPPPPPPPPPPPP",
"PPPPPPPPPPPPPPPPPPPPPPPPPPPPPPWFe.&jUUPPPPUUc=.0FWUPPPPPPPPPPPPPPPPPPPPPPPPPPPPP",
"PPPPPPPPPPPPPPPPPPPPPPPPPPPPUPj&+pPUUPPPPPPUUPf++pPUPPPPPPPPPPPPPPPPPPPPPPPPPPPP",
"PPPPPPPPPPPPPPPPPPPPPPPPPPUUV<.5DUUPPPPPPPPPPPWF0.=cUPPPPPPPPPPPPPPPPPPPPPPPPPPP",
"PPPPPPPPPPPPPPPPPPPPPPPPPWD0.=MUUPPPPPPPPPPPPPPUUV4.5DUUPPPPPPPPPPPPPPPPPPPPPPPP",
"PPPPPPPPPPPPPPPPPPPPPPUUPp+&jPUPPPPPPPPPPPPPPPPPPUUc&+eFWPUPPPPPPPPPPPPPPPPPPPPP",
"PPPPPPPPPPPPPPPPPPPPPUUc&.eFUPUPPPPPPPPPPPPPPPPPPPUUPp+&jPUUPPPPPPPPPPPPPPPPPPPP",
"PPPPPPPPPPPPPPPPPPPUUV4.4DUUPPPPPPPPPPPPPPPPPPPPPPPPPUD5.=MUUPPPPPPPPPPPPPPPPPPP",
"PPPPPPPPPPPPPPPPPPUFe.=cUUPUPPPPPPPPPPPPPPPPPPPPPPPPPPUUM<.5DUPPPPPPPPPPPPPPPPPP",
"PPPPPPPPPPPPPPPPPPU0.4DWPPPPPPPPPPPPPPPPPPPPPPPPPPPPPPPUWP0.4UPPPPPPPPPPPPPPPPPP",
"PPPPPPPPPPPPPPPPPPU5=00MPUPPPPPPPPPPPPPPPPPPPPPPPPPPPPUUMe0=<DUPPPPPPPPPPPPPPPPP",
"PPPPPPPPPPPPPPPPPPU5<Dp5pVUUPPPPPPPPPPPPPPPPPPPPPPPPUUVp4eD5<fFUPPPPPPPPPPPPPPPP",
"PPPPPPPPPPPPPPPPPPU5<UPM05fFUUPPPPPPPPPPPPPPPPPPPPUUFj50MPW5<fjUPPPPPPPPPPPPPPPP",
"PPPPPPPPPPPPPPPPPPU44UUUPj05jPUPPPPPPPPPPPPPPPPPUUPc05jPUPU54p0DUPPPPPPPPPPPPPPP",
"PPPPPPPPPPPPPPPPPPU4<UUPPUFf5eMPUPPUPPPPPPPPPPPUUVe5pDUUPPU0<f5pUPPPPPPPPPPPPPPP",
"PPPPPPPPPPPPPPPPPPU5<PPPPPUUVp4pDUUUPPPPPPPPPPUFp5eVUUPPPPU54f00VPPPPPPPPPPPPPPP",
"PPPPPPPPPPPPPPPPPPU4<UUPPPPPUPM05jFUUPPPPPPUUPj50cPUPPPPPPU5<f50pPUPPPPPPPPPPPPP",
"PPPPPPPPPPPPPPPPPPU5<UPPPPPPPUUPj50cPUUPPPUPc05jFUUPPPPPPPU5<f500cUUPPPPPPPPPPPP",
"PPPPPPPPPPPPPPPPPPU5<UPPPPPPPPPUUDp5eVUUUUDe5pDUUUPPPPPPPUU5<p000eFUPPPPPPPPPPPP",
"PPPPPPPPPPPPPPPPPPU5<PUPPPPPPPPPUUUVe5fDFj5eMPUPPPPPPPPPPPU5<f0005jUPPPPPPPPPPPP",
"PPPPPPPPPPPPPPPPPPU54UPPPPPPPPPPPPUUPc0005cPUPPPPPPPPPPPPPU5<f00000DUPPPPPPPPPPP",
"PPPPPPPPPPPPPPPPPPU54UPPPPPPPPPPPPPPUUFpeFUUPPPPPPPPPPPPPPU54f50005fPPPPPPPPPPPP",
"PPPPPPPPPPPPPPPPPPU5<PUPPPPPPPPPPPPPPPUjpUPPPPPPPPPPPPPPPPU54p000000VUPPPPPPPPPP",
"PPPPPPPPPPPPPPPPPPU5<UPPPPPPPPPPPPPPPPPfpUPPPPPPPPPPPPPPPPU5<f000000ePUPPPPPPPPP",
"PPPPPPPPPPPPPPPPPPU5<UUPPPPPPPPPPPPPPPPfpPPPPPPPPPPPPPPPPPU5<f0000005cUPPPPPPPPP",
"PPPPPPPPPPPPPPPPPPU4<UPPPPPPPPPPPPPPPPUfpPPPPPPPPPPPPPPPPPU5<p00000000FUPPPPPPPP",
"PPPPPPPPPPPPPPPPPPU5<UUPPPPPPPPPPPPPPPPfpPPPPPPPPPPPPPPPPUU5<f50000000fUUPPPPPPP",
"PPPPPPPPPPPPPPPPPPU5<UPPPPPPPPPPPPPPPPUfpUPPPPPPPPPPPPPPPPU5<f000000005DUPPPPPPP",
"PPPPPPPPPPPPPPPPPPU4<UUPPPPPPPPPPPPPPPUfeUPPPPPPPPPPPPPPPPU4<f000000000pUPPPPPPP",
"PPPPPPPPPPPPPPPPPPU54PPPPPPPPPPPPPPPPPUppUPPPPPPPPPPPPPPPPU54p0000000005MUPPPPPP",
"PPPPPPPPPPPPPPPPPPU5<UUPPPPPPPPPPPPPPPUfpPPPPPPPPPPPPPPPPPU4<f5000000000ePUPPPPP",
"PPPPPPPPPPPPPPPPPPU44WUPPPPPPPPPPPPPPPUfpPPPPPPPPPPPPPPPPUW4<f00000000000jUPPPPP",
"PPPPPPPPPPPPPPPPPUU4+jUUPPPPPPPPPPPPPPPfpPPPPPPPPPPPPPPPUUM&4f000000000000FUPPPP",
"PPPPPPPPPPPPPPPPPPUV4.4DUUUPPPPPPPPPPPUfpUPPPPPPPPPPPPUWD5.4fe000000000005fUUPPP",
"PPPPPPPPPPPPPPPPPPPUMp&+eFUPPPPPPPPPPPUfeUPPPPPPPPPUUUFp+&fj000000000000005VUPPP",
"PPPPPPPPPPPPPPPPPPPUFeje&&jPUUPPPPPPPPUppUPPPPPPPPPUUj=+ejp5000000000000000pPPPP",
"PPPPPPPPPPPPPPPPPPPPUM5pj5.<MUUPPPPPPPUfpPPPPPPPPUUV4.5jp0000000000000000000MPPP",
"PPPPPPPPPPPPPPPPPPPPUPe50ff<+5DUUPPPPPUfpPPPPPUUUF0.<ffe50000000000000000000eFUP",
"PPPPPPPPPPPPPPPPPPPPPUV0000fp&+pPUPPPPUfpPPPPPUPf+&pje00000000000000000000000jUP",
"PPPPPPPPPPPUPPPPPPPPPUUf5000eje+&jUUPPUfpPPPUUc=+0jp50000000000000000000000000DP",
"PPPPPPPPPPPPPPPPPPPPPPUF000000pj5.4MUUPfpUUUV4.4jp0000000000000000000000000000fU",
"PPPPPPPPPPPPPPPPPPPPPPPUc0000000ff<.0FWfpUFe+=ff0000000000000000000000000000000M",
"PPPPPPPPPPPPPPPPPPPPPPPUFe0000005efp&+fppj&&pje00000000000000000000000000000000e",
"PPPPPPPPPPPPPPPPPPPPPPPPUM500000000ej0+&++5jp50000000000000000000000000000000000",
"PPPPPPPPPPPPPPPPPPPPPPPPPPp0000000000pf44jf0000000000000000000000000000000000000",
"PPPPPPPPPPPPPPPPPPPPPPPPPUD500000000050fj000000000000000000000000000000000000000",
"PPPPPPPPPPPPPPPPPPPPPPPPPPUf0000000000000000000000000000000000000000000000000000",
"PPPPPPPPPPPPPPPPPPPPPPPPPPUF0000000000000000000000000000000000000000000000000000",
"PPPPPPPPPPPPPPPPPPPPPPPPPPPUc000000000000000000000000000000000000000000000000000",
"PPPPPPPPPPPPPPPPPPPPPPPPPPPUFe00000000000000000000000000000000000000000000000000",
"PPPPPPPPPPPPPPPPPPPPPPPPPPPPUV00000000000000000000000000000000000000000000000000",
"PPPPPPPPPPPPPPPPPPPPPPPPPPPPPUp5000000000000000000000000000000000000000000000000",
"PPPPPPPPPPPPPPPPPPPPPPPPPPPPPUD0000000000000000000000000000000000000000000000000",
"PPPPPPPPPPPPPPPPPPPPPPPPPPPPPPUj000000000000000000000000000000000000000000000000",
"PPPPPPPPPPPPPPPPPPPPPPPPPPPPPPUFe00000000000000000000000000000000000000000000000",
"PPPPPPPPPPPPPPPPPPPPPPPPPPPPPPPUc50000000000000000000000000000000000000000000000",
"PPPPPPPPPPPPPPPPPPPPPPPPPPPPPPPUPp5000000000000000000000000000000000000000000000",
"PPPPPPPPPPPPPPPPPPPPPPPPPPPPPPPPUV5000000000000000000000000000000000000000000000",
"PPPPPPPPPPPPPPPPPPPPPPPPPPPPPPPPPUf000000000000000000000000000000000000000000000",
"PPPPPPPPPPPPPPPPPPPPPPPPPPPPPPPPPUD000000000000000000000000000000000000000000000",
"PPPPPPPPPPPPPPPPPPPPPPPPPPPPPPPPPPUj00000000000000000000000000000000000000000000"
};
