/* XPM */
static char *b66c8b854981412ccb51eae0321ad466[] = {
/* columns rows colors chars-per-pixel */
"128 128 76 1 ",
"  c #929292",
". c #939393",
"X c gray58",
"o c #959595",
"O c gray59",
"+ c #979797",
"@ c #989898",
"# c gray60",
"$ c #9A9A9A",
"% c #9B9B9B",
"& c gray61",
"* c #9D9D9D",
"= c gray62",
"- c #9F9F9F",
"; c #A0A0A0",
": c gray63",
"> c #A2A2A2",
", c gray64",
"< c #A4A4A4",
"1 c #A5A5A5",
"2 c gray65",
"3 c #A7A7A7",
"4 c gray66",
"5 c #A9A9A9",
"6 c #AAAAAA",
"7 c gray67",
"8 c #ACACAC",
"9 c gray68",
"0 c #AEAEAE",
"q c #AFAFAF",
"w c gray69",
"e c #B1B1B1",
"r c #B2B2B2",
"t c gray70",
"y c #B4B4B4",
"u c gray71",
"i c #B6B6B6",
"p c #B7B7B7",
"a c gray72",
"s c #B9B9B9",
"d c gray73",
"f c #BBBBBB",
"g c #BCBCBC",
"h c gray74",
"j c gray",
"k c gray75",
"l c #C0C0C0",
"z c #C1C1C1",
"x c gray76",
"c c #C3C3C3",
"v c gray77",
"b c #C5C5C5",
"n c #C6C6C6",
"m c gray78",
"M c #C8C8C8",
"N c gray79",
"B c #CACACA",
"V c #CBCBCB",
"C c gray80",
"Z c #CDCDCD",
"A c #CECECE",
"S c gray81",
"D c #D0D0D0",
"F c gray82",
"G c #D2D2D2",
"H c LightGray",
"J c gray83",
"K c #D5D5D5",
"L c gray84",
"P c #D7D7D7",
"I c #D8D8D8",
"U c gray85",
"Y c #DADADA",
"T c gray86",
"R c gainsboro",
"E c #DDDDDD",
/* pixels */
"LLLLLLLLLLLLLLLLLLLLLLLLLLLLLLLLLLLLLLLLLLLLLLLLLLLLLLLLLLLLLLLLLLLLLLLLLLLLLLLLLLLLLLLLLLLLLLLLLLLLLLLLLLLLLLLLLLLLLLLLLLLLLLLL",
"LLLLLLLLLLLLLLLLLLLLLLLLLLLLLLLLLLLLLLLLLLLLLLLLLLLLLLLLLLLLLLLLLLLLLLLLLLLLLLLLLLLLLLLLLLLLLLLLLLLLLLLLLLLLLLLLLLLLLLLLLLLLLLLL",
"LLLLLLLLLLLLLLLLLLLLLLLLLLLLLLLLLLLLLLLLLLLLLLLLLLLLLLLLLLLLLLLLLLLLLLLLLLLLLLLLLLLLLLLLLLLLLLLLLLLLLLLLLLLLLLLLLLLLLLLLLLLLLLLL",
"LLLLLLLLLLLLLLLLLLLLLLLLLLLLLLLLLLLLLLLLLLLLLLLLLLLLLLLLLLLLLLLLLLLLLLLLLLLLLLLLLLLLLLLLLLLLLLLLLLLLLLLLLLLLLLLLLLLLLLLLLLLLLLLL",
"LLLLLLLLLLLLLLLLLLLLLLLLLLLLLLLLLLLLLLLLLLLLLLLLLLLLLLLLLLLLLLLLLLLLLLLLLLLLLLLLLLLLLLLLLLLLLLLLLLLLLLLLLLLLLLLLLLLLLLLLLLLLLLLL",
"LLLLLLLLLLLLLLLLLLLLLLLLLLLLLLLLLLLLLLLLLLLLLLLLLLLLLLLLLLLLLLLLLLLLLLLLLLLLLLLLLLLLLLLLLLLLLLLLLLLLLLLLLLLLLLLLLLLLLLLLLLLLLLLL",
"LLLLLLLLLLLLLLLLLLLLLLLLLLLLLLLLLLLLLLLLLLLLLLLLLLLLLLLLLLLLLLLLLLLLLLLLLLLLLLLLLLLLLLLLLLLLLLLLLLLLLLLLLLLLLLLLLLLLLLLLLLLLLLLL",
"LLLLLLLLLLLLLLLLLLLLLLLLLLLLLLLLLLLLLLLLLLLLLLLLLLLLLLLLLLLLLLLLLLLLLLLLLLLLLLLLLLLLLLLLLLLLLLLLLLLLLLLLLLLLLLLLLLLLLLLLLLLLLLLL",
"LLLLLLLLLLLLLLLLLLLLLLLLLLLLLLLLLLLLLLLLLLLLLLLLLLLLLLLLLLLLLLLLLLLLLLLLLLLLLLLLLLLLLLLLLLLLLLLLLLLLLLLLLLLLLLLLLLLLLLLLLLLLLLLL",
"LLLLLLLLLLLLLLLLLLLLLLLLLLLLLLLLLLLLLLLLLLLLLLLLLLLLLLLLLLLLLLLLLLLLLLLLLLLLLLLLLLLLLLLLLLLLLLLLLLLLLLLLLLLLLLLLLLLLLLLLLLLLLLLL",
"LLLLLLLLLLLLLLLLLLLLLLLLLLLLLLLLLLLLLLLLLLLLLLLLLLLLLLLLLLLLLLLLLLLLLLLLLLLLLLLLLLLLLLLLLLLLLLLLLLLLLLLLLLLLLLLLLLLLLLLLLLLLLLLL",
"LLLLLLLLLLLLLLLLLLLLLLLLLLLLLLLLLLLLLLLLLLLLLLLLLLLLLLLLLLLLLLLLLLLLLLLLLLLLLLLLLLLLLLLLLLLLLLLLLLLLLLLLLLLLLLLLLLLLLLLLLLLLLLLL",
"LLLLLLLLLLLLLLLLLLLLLLLLLLLLLLLLLLLLLLLLLLLLLLLLLLLLLLLLLLLLLLLLLLLLLLLLLLLLLLLLLLLLLLLLLLLLLLLLLLLLLLLLLLLLLLLLLLLLLLLLLLLLLLLL",
"LLLLLLLLLLLLLLLLLLLLLLLLLLLLLLLLLLLLLLLLLLLLLLLLLLLLLLLLLLLLLLLLLLLLLLLLLLLLLLLLLLLLLLLLLLLLLLLLLLLLLLLLLLLLLLLLLLLLLLLLLLLLLLLL",
"LLLLLLLLLLLLLLLLLLLLLLLLLLLLLLLLLLLLLLLLLLLLLLLLLLLLLLLLLLLLLLLLLLLLLLLLLLLLLLLLLLLLLLLLLLLLLLLLLLLLLLLLLLLLLLLLLLLLLLLLLLLLLLLL",
"LLLLLLLLLLLLLLLLLLLLLLLLLLLLLLLLLLLLLLLLLLLLLLLLLLLLLLLLLLLLLLLLLLLLLLLLLLLLLLLLLLLLLLLLLLLLLLLLLLLLLLLLLLLLLLLLLLLLLLLLLLLLLLLL",
"LLLLLLLLLLLLLLLLLLLLLLLLLLLLLLLLLLLLLLLLLLLLLLLLLLLLLLLLLLLLLLLLLLLLLLLLLLLLLLLLLLLLLLLLLLLLLLLLLLLLLLLLLLLLLLLLLLLLLLLLLLLLLLLL",
"LLLLLLLLLLLLLLLLLLLLLLLLLLLLLLLLLLLLLLLLLLLLLLLLLLLLLLLLLLLLLLLLLLLLLLLLLLLLLLLLLLLLLLLLLLLLLLLLLLLLLLLLLLLLLLLLLLLLLLLLLLLLLLLL",
"LLLLLLLLLLLLLLLLLLLLLLLLLLLLLLLLLLLLLLLLLLLLLLLLLLLLLLLLLLLLLLLLLLLLLLLLLLLLLLLLLLLLLLLLLLLLLLLLLLLLLLLLLLLLLLLLLLLLLLLLLLLLLLLL",
"LLLLLLLLLLLLLLLLLLLLLLLLLLLLLLLLLLLLLLLLLLLLLLLLLLLLLLLLLLLLLLLLLLLLLLLLLLLLLLLLLLLLLLLLLLLLLLLLLLLLLLLLLLLLLLLLLLLLLLLLLLLLLLLL",
"LLLLLLLLLLLLLLLLLLLLLLLLLLLLLLLLLLLLLLLLLLLLLLLLLLLLLLLLLLLLLLLLLLLLLLLLLLLLLLLLLLLLLLLLLLLLLLLLLLLLLLLLLLLLLLLLLLLLLLLLLLLLLLLL",
"LLLLLLLLLLLLLLLLLLLLLLLLLLLLLLLLLLLLLLLLLLLLLLLLLLLLLLLLLLLLLLLLLLLLLLLLLLLLLLLLLLLLLLLLLLLLLLLLLLLLLLLLLLLLLLLLLLLLLLLLLLLLLLLL",
"LLLLLLLLLLLLLLLLLLLLLLLLLLLLLLLLLLLLLLLLLLLLLLLLLLLLLLLLLLLLLLLLLLLLLLLLLLLLLLLLLLLLLLLLLLLLLLLLLLLLLLLLLLLLLLLLLLLLLLLLLLLLLLLL",
"LLLLLLLLLLLLLLLLLLLLLLLLLLLLLLLLLLLLLLLLLLLLLLLLLLLLLLLLLLLLLLLLLLLLLLLLLLLLLLLLLLLLLLLLLLLLLLLLLLLLLLLLLLLLLLLLLLLLLLLLLLLLLLLL",
"LLLLLLLLLLLLLLLLLLLLLLLLLLLLLLLLLLLLLLLLLLLLLLLLLLLLLLLLLLLLLLLIILLLLLLLLLLLLLLLLLLLLLLLLLLLLLLLLLLLLLLLLLLLLLLLLLLLLLLLLLLLLLLL",
"LLLLLLLLLLLLLLLLLLLLLLLLLLLLLLLLLLLLLLLLLLLLLLLLLLLLLLLLLLLLLIIHCRILLLLLLLLLLLLLLLLLLLLLLLLLLLLLLLLLLLLLLLLLLLLLLLLLLLLLLLLLLLLL",
"LLLLLLLLLLLLLLLLLLLLLLLLLLLLLLLLLLLLLLLLLLLLLLLLLLLLLLLLLLLIILj=@yLIILLLLLLLLLLLLLLLLLLLLLLLLLLLLLLLLLLLLLLLLLLLLLLLLLLLLLLLLLLL",
"LLLLLLLLLLLLLLLLLLLLLLLLLLLLLLLLLLLLLLLLLLLLLLLLLLLLLLLLLLIIV2  + ,xIILILLLLLLLLLLLLLLLLLLLLLLLLLLLLLLLLLLLLLLLLLLLLLLLLLLLLLLLL",
"LLLLLLLLLLLLLLLLLLLLLLLLLLLLLLLLLLLLLLLLLLLLLLLLLLLLLLLLLIH8+ +88+  6VIILLLLLLLLLLLLLLLLLLLLLLLLLLLLLLLLLLLLLLLLLLLLLLLLLLLLLLLL",
"LLLLLLLLLLLLLLLLLLLLLLLLLLLLLLLLLLLLLLLLLLLLLLLLLLLLLLIILy@  ,xIIb2  +8HIILLLLLLLLLLLLLLLLLLLLLLLLLLLLLLLLLLLLLLLLLLLLLLLLLLLLLL",
"LLLLLLLLLLLLLLLLLLLLLLLLLLLLLLLLLLLLLLLLLLLLLLLLLLLLLIIx, +@yLILIIIx=  =jLILLLLLLLLLLLLLLLLLLLLLLLLLLLLLLLLLLLLLLLLLLLLLLLLLLLLL",
"LLLLLLLLLLLLLLLLLLLLLLLLLLLLLLLLLLLLLLLLLLLLLLLLLLLIIV2+ +8HILLLLLIIHr@  ,bIIILLLLLLLLLLLLLLLLLLLLLLLLLLLLLLLLLLLLLLLLLLLLLLLLLL",
"LLLLLLLLLLLLLLLLLLLLLLLLLLLLLLLLLLLLLLLLLLLLLLLLLLIHr+ +2VILLLLLLLLLIIC8+ +6CIILLLLLLLLLLLLLLLLLLLLLLLLLLLLLLLLLLLLLLLLLLLLLLLLL",
"LLLLLLLLLLLLLLLLLLLLLLLLLLLLLLLLLLLLLLLLLLLLLLLLILj@  =xLILLLLLLLLLLILIIx, +@rLIILLLLLLLLLLLLLLLLLLLLLLLLLLLLLLLLLLLLLLLLLLLLLLL",
"LLLLLLLLLLLLLLLLLLLLLLLLLLLLLLLLLLLLLLLLLLLLLIIIx, +@yLIILLLLLLLLLLLLLLLILj@  =jLIILLLLLLLLLLLLLLLLLLLLLLLLLLLLLLLLLLLLLLLLLLLLL",
"LLLLLLLLLLLLLLLLLLLLLLLLLLLLLLLLLLLLLLLLLLLLIIC8+ +8CRILLLLLLLLLLLLLLLLLLIIHr@  2VIILLLLLLLLLLLLLLLLLLLLLLLLLLLLLLLLLLLLLLLLLLLL",
"LLLLLLLLLLLLLLLLLLLLLLLLLLLLLLLLLLLLLLLLLLIIHy@  2bIILLLLLLLLLLLLLLLLLLLLLLIIC6+ +8CIILILLLLLLLLLLLLLLLLLLLLLLLLLLLLLLLLLLLLLLLL",
"LLLLLLLLLLLLLLLLLLLLLLLLLLLLLLLLLLLLLLLILIIj=  =jIILILLLLLLLLLLLLLLLLLLLLLLLIILx=  =yLIILLLLLLLLLLLLLLLLLLLLLLLLLLLLLLLLLLLLLLLL",
"LLLLLLLLLLLLLLLLLLLLLLLLLLLLLLLLLLLLLLLIIV,  @rHIILLLLLLLLLLLLLLLLLLLLLLLLLLLLIILs@  ,xLILLLLLLLLLLLLLLLLLLLLLLLLLLLLLLLLLLLLLLL",
"LLLLLLLLLLLLLLLLLLLLLLLLLLLLLLLLLLLLLIIC8+ +6CILLLLLLLLLLLLLLLLLLLLLLLLLLLLLLLLLLRCr+  6VIILLLLLLLLLLLLLLLLLLLLLLLLLLLLLLLLLLLLL",
"LLLLLLLLLLLLLLLLLLLLLLLLLLLLLLLLLLLIILy@  ,xIILLLLLLLLLLLLLLLLLLLLLLLLLLLLLLLLLLLLIIV2+ @rCIILLLLLLLLLLLLLLLLLLLLLLLLLLLLLLLLLLL",
"LLLLLLLLLLLLLLLLLLLLLLLLLLLLLLLLLLILx=+ =sLIILLLLLLLLLLLLLLLLLLLLLLLLLLLLLLLLLLLLLLLIIj= +=sIILLLLLLLLLLLLLLLLLLLLLLLLLLLLLLLLLL",
"LLLLLLLLLLLLLLLLLLLLLLLLLLLLLLLLIIV2  +rCRILLLLLLLLLLLLLLLLLLLLLLLLLLLLLLLLLLLLLLLLLLLILy@ +,xIILLLLLLLLLLLLLLLLLLLLLLLLLLLLLLLL",
"LLLLLLLLLLLLLLLLLLLLLLLLLLLLLLIIHr+  6VIILLLLLLLLLLLLLLLLLLLLLLLLLLLLLLLLLLLLLLLLLLLLLLLIC6+ +6VIILLLLLLLLLLLLLLLLLLLLLLLLLLLLLL",
"LLLLLLLLLLLLLLLLLLLLLLLLLLLLLLLs@ +=xLILLLLLLLLLLLLLLLLLLLLLLLLLLLLLLLLLLLLLLLLLLLLLLLLLLIIb,+ +yLILLLLLLLLLLLLLLLLLLLLLLLLLLLLL",
"LLLLLLLLLLLLLLLLLLLLLLLLLLLLLIC+++2HRLLLLLLLLLLLLLLLLLLLLLLLLLLLLLLLLLLLLLLLLLLLLLLLLLLLLLIRL8@+ xILLLLLLLLLLLLLLLLLLLLLLLLLLLLL",
"LLLLLLLLLLLLLLLLLLLLLLLLLLLLLIV@+28yVLILLLLLLLLLLLLLLLLLLLLLLLLLLLLLLLLLLLLLLLLLLLLLLLLLLLIVyr6@ xILLLLLLLLLLLLLLLLLLLLLLLLLLLLL",
"LLLLLLLLLLLLLLLLLLLLLLLLLLLLLIC++8886sCIILLLLLLLLLLLLLLLLLLLLLLLLLLLLLLLLLLLLLLLLLLLLLLLIHs8668@+jVLLLLLLLLLLLLLLLLLLLLLLLLLLLLL",
"LLLLLLLLLLLLLLLLLLLLLLLLLLLLLIV+ bbr688jHIILLLLLLLLLLLLLLLLLLLLLLLLLLLLLLLLLLLLLLLLLLLILx8888xC@+xrHILLLLLLLLLLLLLLLLLLLLLLLLLLL",
"LLLLLLLLLLLLLLLLLLLLLLLLLLLLLIC++bRHj8688bLILLLLLLLLLLLLLLLLLLLLLLLLLLLLLLLLLLLLLLLLIIbr668sHIH@ jrjILLLLLLLLLLLLLLLLLLLLLLLLLLL",
"LLLLLLLLLLLLLLLLLLLLLLLLLLLLLIC++bIIICs686rVILLLLLLLLLLLLLLLLLLLLLLLLLLLLLLLLLLLLLIICy868yCIIIC@+jr8CILLLLLLLLLLLLLLLLLLLLLLLLLL",
"LLLLLLLLLLLLLLLLLLLLLLLLLLLLLIV+ bILILLVr686sHIILLLLLLLLLLLLLLLLLLLLLLLLLLLLLLLLLIHj866rbLILLLH@+jy6sILLLLLLLLLLLLLLLLLLLLLLLLLL",
"LLLLLLLLLLLLLLLLLLLLLLLLLLLLLIV++bILLLIILx8688jHIILLLLLLLLLLLLLLLLLLLLLLLLLLLLLILx8688jHIILLLIH@+jr88VLLLLLLLLLLLLLLLLLLLLLLLLLL",
"LLLLLLLLLLLLLLLLLLLLLLLLLLLLLIV++bILLLLLIIHj868rbIILLLLLLLLLLLLLLLLLLLLLLLLLLIIVy688sCIILLLLLIC@ xy88yLLLLLLLLLLLLLLLLLLLLLLLLLL",
"LLLLLLLLLLLLLLLLLLLLLLLLLLLLLIV++xIILLLLLLIICy668yCIILLLLLLLLLLLLLLLLLLLLLLIICs688yVIILLLLLLLIC++jr888xILLLLLLLLLLLLLLLLLLLLLLLL",
"LLLLLLLLLLLLLLLLLLLLLLLLLLLLLIV++bILLLLLLLLLIIbr688sHILLLLLLLLLLLLLLLLLLLLIHx8868xLILILLLLLLLIH@+xy8888HILLLLLLLLLLLLLLLLLLLLLLL",
"LLLLLLLLLLLLLLLLLLLLLLLLLLLLLIV++bILLLLLLLLLLIILx888rxLILLLLLLLLLLLLLLLIILbr688jHILLLLLLLLLLLIC@ jy8888jILLLLLLLLLLLLLLLLLLLLLLL",
"LLLLLLLLLLLLLLLLLLLLLLLLLLLLLIV+ bILLLLLLLLLLLLIICs868rbIILLLLLLLLLLLLIICy666yCIILLLLLLLLLLLLLH=+xr88888CILLLLLLLLLLLLLLLLLLLLLL",
"LLLLLLLLLLLLLLLLLLLLLLLLLLLLLIV++bILLLLLLLLLLLLLLIIVy686yHIILLLLLLLLLIHs888rVLIILLLLLLLLLLLLLIC@ xr88r88yILLLLLLLLLLLLLLLLLLLLLL",
"LLLLLLLLLLLLLLLLLLLLLLLLLLLLLIV++bILLLLLLLLLLLLLLLLILxr688jLILLLLLLILx8888xLIILLLLLLLLLLLLLLLIC@+jr888888bILLLLLLLLLLLLLLLLLLLLL",
"LLLLLLLLLLLLLLLLLLLLLLLLLLLLLIV++xIILLLLLLLLLLLLLLLLIIHj886rbLILLLIVr868sHILLLLLLLLLLLLLLLLLLIC@+jr88r888rLLLLLLLLLLLLLLLLLLLLLL",
"LLLLLLLLLLLLLLLLLLLLLLLLLLLLLIV++bILLLLLLLLLLLLLLLLLLLIIHy668yCIIHy666yCIILLLLLLLLLLLLLLLLLLLIC@+xy8888888xILLLLLLLLLLLLLLLLLLLL",
"LLLLLLLLLLLLLLLLLLLLLLLLLLLLLIV++bILLLLLLLLLLLLLLLLLLLLLLIVr888ssr86rbLILLLLLLLLLLLLLLLLLLLLLIC+ jy8888r888HILLLLLLLLLLLLLLLLLLL",
"LLLLLLLLLLLLLLLLLLLLLLLLLLLLLIV+ bILLLLLLLLLLLLLLLLLLLLLLLLLx888688jLIILLLLLLLLLLLLLLLLLLLLLLIC++xr8r888886sILLLLLLLLLLLLLLLLLLL",
"LLLLLLLLLLLLLLLLLLLLLLLLLLLLLIV++bILLLLLLLLLLLLLLLLLLLLLLLLIIHj88sHILLLLLLLLLLLLLLLLLLLLLLLLLIC@+xy888r88r88VILLLLLLLLLLLLLLLLLL",
"LLLLLLLLLLLLLLLLLLLLLLLLLLLLLIV++VILLLLLLLLLLLLLLLLLLLLLLLLLLIH88CILLLLLLLLLLLLLLLLLLLLLLLLLLIC@+jr888888888yLLLLLLLLLLLLLLLLLLL",
"LLLLLLLLLLLLLLLLLLLLLLLLLLLLLIV+ bILLLLLLLLLLLLLLLLLLLLLLLLLLLH88CILLLLLLLLLLLLLLLLLLLLLLLLLLIC@+xr8888888886bILLLLLLLLLLLLLLLLL",
"LLLLLLLLLLLLLLLLLLLLLLLLLLLLLIV++bILLLLLLLLLLLLLLLLLLLLLLLLLLLH88CILLLLLLLLLLLLLLLLLLLLLLLLLLIC@ jr8888rr8888rHLLLLLLLLLLLLLLLLL",
"LLLLLLLLLLLLLLLLLLLLLLLLLLLLLIV+ bILLLLLLLLLLLLLLLLLLLLLLLLLLLH88CILLLLLLLLLLLLLLLLLLLLLLLLLLIC@+jr8r888888r86xILLLLLLLLLLLLLLLL",
"LLLLLLLLLLLLLLLLLLLLLLLLLLLLLIV++bILLLLLLLLLLLLLLLLLLLLLLLLLLLH88CILLLLLLLLLLLLLLLLLLLLLLLLLLIC@+xy8888rr888888CILLLLLLLLLLLLLLL",
"LLLLLLLLLLLLLLLLLLLLLLLLLLLLLIV++bILLLLLLLLLLLLLLLLLLLLLLLLLLLHr8CILLLLLLLLLLLLLLLLLLLLLLLLLLIC@ xy8888888888r8sILLLLLLLLLLLLLLL",
"LLLLLLLLLLLLLLLLLLLLLLLLLLLLLIV++bILLLLLLLLLLLLLLLLLLLLLLLLLLLH88CILLLLLLLLLLLLLLLLLLLLLLLLLLIC@+jy88r8888r88886VILLLLLLLLLLLLLL",
"LLLLLLLLLLLLLLLLLLLLLLLLLLLLLIV++bIILLLLLLLLLLLLLLLLLLLLLLLLLIH88CILLLLLLLLLLLLLLLLLLLLLLLLLLIC@+xr88r8888888888rLLLLLLLLLLLLLLL",
"LLLLLLLLLLLLLLLLLLLLLLLLLLLLLIV++bILLLLLLLLLLLLLLLLLLLLLLLLLLLH88CILLLLLLLLLLLLLLLLLLLLLLLLLLIC@ jr88888r8r888r86xILLLLLLLLLLLLL",
"LLLLLLLLLLLLLLLLLLLLLLLLLLLLLIV++bILLLLLLLLLLLLLLLLLLLLLLLLLLLH88CILLLLLLLLLLLLLLLLLLLLLLLLLLIC@+jr888888r888r8r8rHLLLLLLLLLLLLL",
"LLLLLLLLLLLLLLLLLLLLLLLLLLLLLIV+ bILLLLLLLLLLLLLLLLLLLLLLLLLLIH88CILLLLLLLLLLLLLLLLLLLLLLLLLLIC@+xy8r8888888888886jILLLLLLLLLLLL",
"LLLLLLLLLLLLLLLLLLLLLLLLLLLLLIV++bILLLLLLLLLLLLLLLLLLLLLLLLLLLH88CILLLLLLLLLLLLLLLLLLLLLLLLLLIC@ xr8888r888r88888r8CILLLLLLLLLLL",
"LLLLLLLLLLLLLLLLLLLLLLLLLLLLLIV++VILLLLLLLLLLLLLLLLLLLLLLLLLLLH88CILLLLLLLLLLLLLLLLLLLLLLLLLLIC@+jy8r888r8888888888yILLLLLLLLLLL",
"LLLLLLLLLLLLLLLLLLLLLLLLLLLLLIV+ bIILLLLLLLLLLLLLLLLLLLLLLLLLIH88CILLLLLLLLLLLLLLLLLLLLLLLLLLIC@+jr888888888888r8888bILLLLLLLLLL",
"LLLLLLLLLLLLLLLLLLLLLLLLLLLLLIV++bILLLLLLLLLLLLLLLLLLLLLLLLLLLH88CILLLLLLLLLLLLLLLLLLLLLLLLLLIC@ xr888r888r8r888r888rLLLLLLLLLLL",
"LLLLLLLLLLLLLLLLLLLLLLLLLLLLLIV++bILLLLLLLLLLLLLLLLLLLLLLLLLLLH88CILLLLLLLLLLLLLLLLLLLLLLLLLLIC@+xr88888888888r8888r6xILLLLLLLLL",
"LLLLLLLLLLLLLLLLLLLLLLLLLLLLLIV++bRLLILLLLLLLLLLLLLLLLLLLLLLLLH88CILLLLLLLLLLLLLLLLLLLLLLLLLLRC++xr88r888r88888888888rHLLLLLLLLL",
"LLLLLLLLLLLLLLLLLLLLLLLLLLLLLLV++,bIIILLLLLLLLLLLLLLLLLLLLLLLLHr8CILLLLLLLLLLLLLLLLLLLLLLLLLIV2+ jy888r888r8r888888888jILLLLLLLL",
"LLLLLLLLLLLLLLLLLLLLLLLLLLLLLLH6+ +8CILLLLLLLLLLLLLLLLLLLLLLLLH88CILLLLLLLLLLLLLLLLLLLLLLIIHr@ +6br88r888r88888r88r8886CILLLLLLL",
"LLLLLLLLLLLLLLLLLLLLLLLLLLLLLLLIj,  @yLIILLLLLLLLLLLLLLLLLLLLIH88CILLLLLLLLLLLLLLLLLLLLLILs=  ,xby8888r888r8r8888r88888yLILLLLLL",
"LLLLLLLLLLLLLLLLLLLLLLLLLLLLLLLIVxj= +=jIILLLLLLLLLLLLLLLLLLLLH88CILLLLLLLLLLLLLLLLLLLIIx,  @sbs888888888888888888r8r886bILLLLLL",
"LLLLLLLLLLLLLLLLLLLLLLLLLLLLLLLILrybr@  2VRILLLLLLLLLLLLLLLLLLH88CILLLLLLLLLLLLLLLLLIIC8+ @8Vjr6888rr888888888888r888888rHLLLLLL",
"LLLLLLLLLLLLLLLLLLLLLLLLLLLLLLLLIV68jb6+ +8HIILLLLLLLLLLLLLLLIH88CILLLLLLLLLLLLLLLIILy@ +2bbr688r888888r888r8r88888888r86jILLLLL",
"LLLLLLLLLLLLLLLLLLLLLLLLLLLLLLLLLIs86rbx,  @sHILLLLLLLLLLLLLLLH88CILLLLLLLLLLLLLLILj=  =jby888r88888888888r888r8r888888888CILLLL",
"LLLLLLLLLLLLLLLLLLLLLLLLLLLLLLLLLLH8866sby@ +,xIILLLLLLLLLLLLLH88CILLLLLLLLLLLLIIV2  @yVs88888888888r8r888888r88888r8r8888sILLLL",
"LLLLLLLLLLLLLLLLLLLLLLLLLLLLLLLLLLIj88888jbr+ +2VIILLLLLLLLLLIH88CILLLLLLLLLLLRC6+ +8bxr888r8888888r8r88r88888r8888888r88r6VILLL",
"LLLLLLLLLLLLLLLLLICLLLLLLLLLLLLLLLLLr8r888rxb2+ +rHIILLLLLLLLLH88CILLLLLLLLIILs@  ,xbr688888r888r8888888888r888888888r88888rLILL",
"LLLLLLLLLLLLLLLLLLLLLLLLLLLLLLLLLLLIb888r886rbj,+ =sIILLLLLLLLH88CILLLLLLLIIx=  =sVy68888r88888r888r8r88r8888888r88888r8r886xILL",
"LLLLLLLLLLLLLLLLLLLLLLLLLLLLLLLLLLLILy88888r86sby@  2bIILLLLLLH88CILLLLIIIV2+ @rbj88888r88r8r888r888888888888r88888r888888888LIL",
"LLLLLLLLLLLLLLLLLLLLLLLLLLLLLLLLLLLLIC888888r868jb6+ +8CIILLLLHr8CILLIIIH8+  6bxr68r88888r8888888888888r888888r88888r888888r8jIL",
"LLLLLLLLLLLLLLLLLLLLLLLLLLLLLLLLLLLLLIj8888888886rxx2  @yLIILLH88CILLILs@+ ,jby688888r88888888r88888r8888r888r888r88888r888888CI",
"LLLLLLLLLLLLLLLLLLLLLLLLLLLLLLLLLLLLLIH888888r888r8yVj=  =jLILH88CIIIx,  =sVs6888r8888888888888r8r888r888r888r888r88888r888886sL",
"LLLLLLLLLLLLLLLLLLLLLLLLLLLLLLLLLLLLLLIx688r888888888sbr@ +2VIL88CRV6+ +rbj86r88888888r888r8r88888r88888888888r88888r8888888r88b",
"LLLLLLLLLLLLLLLLLLLLLLLLLLLLLLLLLLLLLLLLy88888888r88888xb6+ +8V8rVy@ +2xx8688888888r8r888r8888888r88888r88888r88888r8888888r888r",
"LLLLLLLLLLLLLLLLLLLLLLLLLLLLLLLLLLLLLLLIV888r88888888888rxj,  @22@  =jVy888r88r8r88888r888r888888888r888r8888888r88888r8r888r888",
"LLLLLLLLLLLLLLLLLLLLLLLLLLLLLLLLLLLLLLLILy88888r8r88888888yVs= ++ @yVs688r888r88888r8r888r88888r8888888r888r888888888r888888888r",
"LLLLLLLLLLLLLLLLLLLLLLLLLLLLLLLLLLLLLLLLIC888r888888r8r88888jbr++6bx888888888888888888888888r88888r88888r88888r8888888r888r88888",
"LLLLLLLLLLLLLLLLLLLLLLLLLLLLLLLLLLLLLLLLLIj88888888r8r888r8r68xxxbr68888888r888888888888888r88888r88888888888r88888r8r888r888888",
"LLLLLLLLLLLLLLLLLLLLLLLLLLLLLLLLLLLLLLLLLIH888r8r88888888888888yy888r888r888r88888r8r888r88888r888r888r888r888r8r888888888r888r8",
"LLLLLLLLLLLLLLLLLLLLLLLLLLLLLLLLLLLLLLLLLLIx8888888r888888r8r8888888r8888888888r8r888r888r888r888r88888r888r8r888r888888888r888r",
"LLLLLLLLLLLLLLLLLLLLLLLLLLLLLLLLLLLLLLLLLLILy88r88888r8r888888888888888r88r8r88888r88888888888r88888r88888888888888888r8r8888888",
"LLLLLLLLLLLLLLLLLLLLLLLLLLLLLLLLLLLLLLLLLLLIV688888888r888888888r88888888r8r88888r88888r88888r88888r888888888888888r8r8888888888",
"LLLLLLLLLLLLLLLLLLLLLLLLLLLLLLLLLLLLLLLLLLLLLs8888r88888888r8r88888r8r88888888r88888r888r8888888r88888r888r8r888r88888r888r888r8",
"LLLLLLLLLLLLLLLLLLLLLLLLLLLLLLLLLLLLLLLLLLLLIC888r88r888r88888r8r88888888r888r888888888r888r888888888r888r88888r888r8r888r888888",
"LLLLLLLLLLLLLLLLLLLLLLLLLLLLLLLLLLLLLLLLLLLLLIx68888888r888r8r88888r8r888888888888r88888r88888r8888888r888r8r888888888888888r8r8",
"LLLLLLLLLLLLLLLLLLLLLLLLLLLLLLLLLLLLLLLLLLLLLLHr88888888888888r88888r8r88888888r8r88888888888r88888r8r888r88888888888888888r8r88",
"LLLLLLLLLLLLLLLLLLLLLLLLLLLLLLLLLLLLLLLLLLLLLLIb888r8r888r88888888888888r888r88888r888r888r888r8r8888888888888r888r8r888r8888888",
"LLLLLLLLLLLLLLLLLLLLLLLLLLLLLLLLLLLLLLLLLLLLLLILy8r8888r8888888rr88888r888r888r88888888r888r8r88888r8r888r88888888888888888r888r",
"LLLLLLLLLLLLLLLLLLLLLLLLLLLLLLLLLLLLLLLLLLLLLLLIV888r88888r8r888888r88888r88888888r8r88888888888r8888888888888r8r8r888r8r8888888",
"LLLLLLLLLLLLLLLLLLLLLLLLLLLLLLLLLLLLLLLLLLLLLLLLIs6888888r8888888888r88888r888888r8r8888888888888888888r888r8r888r888r8r88888888",
"LLLLLLLLLLLLLLLLLLLLLLLLLLLLLLLLLLLLLLLLLLLLLLLLLHr8888888r888888r88888r8888888r888888r888r8r8888888r888r88888r88888888888r888r8",
"LLLLLLLLLLLLLLLLLLLLLLLLLLLLLLLLLLLLLLLLLLLLLLLLLIx6888r8r88888r88r888888888r8888r888r888r88888r88888888888r8r88888r88888r888888",
"LLLLLLLLLLLLLLLLLLLLLLLLLLLLLLLLLLLLLLLLLLLLLLLLLLLr8r888888r8888r8888888r88888r8888888888r8r888r8r888r888888888r88888888888r8r8",
"LLLLLLLLLLLLLLLLLLLLLLLLLLLLLLLLLLLLLLLLLLLLLLLLLLIb8888888r888888r8r88888r888888888888r8r8888888r888r8r888888888888888r888r8r88",
"LLLLLLLLLLLLLLLLLLLLLLLLLLLLLLLLLLLLLLLLLLLLLLLLLLLLy888r88888r88888888r8r888r88r888r888888888r88888888888r8r88888r8r888r8888888",
"LLLLLLLLLLLLLLLLLLLLLLLLLLLLLLLLLLLLLLLLLLLLLLLLLLLIC8888r888r88r88888888888r8888r888r888r888888888r888r8888888r888r8r8888888888",
"LLLLLLLLLLLLLLLLLLLLLLLLLLLLLLLLLLLLLLLLLLLLLLLLLLLLIj88888888r8888r8r888888888r888888r8888888r8r888888888r8r888r88888888888r8r8",
"LLLLLLLLLLLLLLLLLLLLLLLLLLLLLLLLLLLLLLLLLLLLLLLLLLLLIH8888888r88888888r8r888888888888r88888r8r88888888888r8r88888888888r888r8r88",
"LLLLLLLLLLLLLLLLLLLLLLLLLLLLLLLLLLLLLLLLLLLLLLLLLLLLLIb8r888888888888r88888r8r88r8888888r88888r888r888r8888888r88888r888r8888888",
"LLLLLLLLLLLLLLLLLLLLLLLLLLLLLLLLLLLLLLLLLLLLLLLLLLLLLLLr888r8888r88888r8r8888888888r8888888r8r888r8888888r888r8888888888888r8r88",
"LLLLLLLLLLLLLLLLLLLLLLLLLLLLLLLLLLLLLLLLLLLLLLLLLLLLLLLV88888r88888r8888888r8r88r88888r8888888888888r8r888888888r8r888r8r8888888",
"LLLLLLLLLLLLLLLLLLLLLLLLLLLLLLLLLLLLLLLLLLLLLLLLLLLLLLLLs68888r88888r8888888r8r888888r8888888888888r8r888888888r8r888r8r8888888r",
"LLLLLLLLLLLLLLLLLLLLLLLLLLLLLLLLLLLLLLLLLLLLLLLLLLLLLLLICr888r888r88888r8888888888r888r888r8r888r8888888r888r888888888888888r888"
};
