/* XPM */
static char *sequence80[] = {
/* columns rows colors chars-per-pixel */
"79 80 96 2 ",
"   c #000000",
".  c #080707",
"X  c #0A0807",
"o  c #0C0B0B",
"O  c #100F0E",
"+  c #10100F",
"@  c #141313",
"#  c #181716",
"$  c #191817",
"%  c #1D1C1B",
"&  c #201E1E",
"*  c #20201F",
"=  c #222221",
"-  c #282726",
";  c #292827",
":  c #2D2C2C",
">  c #312F2E",
",  c #31302F",
"<  c #2F3030",
"1  c #313131",
"2  c #383736",
"3  c #3A3837",
"4  c #3D3C3C",
"5  c #403F3D",
"6  c #42413F",
"7  c #444343",
"8  c #484746",
"9  c #4B4947",
"0  c #4C4B4B",
"q  c #504F4E",
"w  c #52504F",
"e  c #535353",
"r  c #585755",
"t  c #5A5857",
"y  c #5C5B5A",
"u  c #615E5D",
"i  c #62605F",
"p  c #656463",
"a  c #686765",
"s  c #6C6B6A",
"d  c #706F6D",
"f  c #72706F",
"g  c #747472",
"h  c #787675",
"j  c #7A7877",
"k  c #7D7C7B",
"l  c #807E7C",
"z  c #83817F",
"x  c #848382",
"c  c #888785",
"v  c #8B8987",
"b  c #8E8E8E",
"n  c #908E8C",
"m  c #92918F",
"M  c #949392",
"N  c #999796",
"B  c #9A9897",
"V  c #9D9C9B",
"C  c #A19F9D",
"Z  c #A3A19F",
"A  c #A5A4A3",
"S  c #A8A7A6",
"D  c #A9A8A7",
"F  c #ACACAB",
"G  c #B0AFAD",
"H  c #B1B0AF",
"J  c #B4B3B2",
"K  c #B8B7B6",
"L  c #BAB8B7",
"P  c #BDBCBB",
"I  c #C0BFBD",
"U  c #C2C1BF",
"Y  c #C4C3C3",
"T  c #C8C7C6",
"R  c #CAC8C7",
"E  c #CCCCCB",
"W  c #D0CFCE",
"Q  c #D2D1CF",
"!  c #D4D4D3",
"~  c #D8D6D6",
"^  c #D9D8D7",
"/  c #DDDCDB",
"(  c #E0DFDE",
")  c #E2E0DF",
"_  c #E4E3E3",
"`  c #E8E7E6",
"'  c #E8E8E7",
"]  c #ECECEB",
"[  c #F0EFEE",
"{  c #F1F0EF",
"}  c #F6F6F5",
"|  c #F8F7F7",
" . c #F8F8F7",
".. c #F7F8F8",
"X. c #FFFFFF",
"o. c None",
/* pixels */
"o.o.o.o.o.o.o.o.o.o.o.o.o.o.o.o.o.@                                                                                                                           ",
"o.o.o.o.o.o.o.o.o.o.o.o.o.o.o.o.=                                                                         .           .                                       ",
"o.o.o.o.o.o.o.o.o.o.o.o.o.o.o.=     + = = = = = = = = = = = = = = = = = = = = = = = = = = = = = = = = = = = = = = = = = = = = = = = = = = = = = = = = =       ",
"o.o.o.o.o.o.o.o.o.o.o.o.o.o.=     @ T X.....X.....X..... ..... . .X.....X...X. . . .....X..... .......X. ............. .X.......X. ...........X.....X...<     ",
"o.o.o.o.o.o.o.o.o.o.o.o.o.=     + T X.X.X.X.X.X.X.X.X.X.X.X.X.X.X.X.X.X.X.X.X.X.X.X.X.X.X.X.X.X.X.X.X.X.X.X.X.X.X.X.X.X.X.X.X.X.X.X.X.X.X.X.X.X.X.X.X.X.1     ",
"o.o.o.o.o.o.o.o.o.o.o.o.1     @ Y X.X.X.X.X.X.X.X.X.X.X.X.X.X.X.X.X.X.X.X.X.X.X.X.X.X.X.X.X.X.X.X.X.X.X.X.X.X.X.X.X.X.X.X.X.X.X.X.X.X.X.X.X.X.X.X.X.X.X.1     ",
"o.o.o.o.o.o.o.o.o.o.o.<     O I X.X.X.X.Y 7 7 7 7 7 7 4 0 7 4 4 ! Y 6 7 7 7 7 2 e ] Y 7 7 7 7 7 7 7 7 7 7 7 7 7 7 7 7 7 7 7 7 7 7 7 7 7 7 7 7 4 x X.X.X.<     ",
"o.o.o.o.o.o.o.o.o.o.<     o P X.X.X.X.E @             0 :     b  .,           1 ~ ..=                                                           w X.X.X.>     ",
"o.o.o.o.o.o.o.o.o.4     . L X.X.X.X.E #           % K j     m X.x           h ..X.d                                                             w X.X.X.1     ",
"o.o.o.o.o.o.o.o.4     . K X.X.X.X.E @           y | N     b X.! o       @ G X.X.P                                                               e X.X.X.<     ",
"o.o.o.o.o.o.o.4     . H X.X.X.X.W %         % J X.S     c X.X.0       7 _ X.X.} 1                                                               e X.X.X.>     ",
"o.o.o.o.o.o.8       F X.X.X.X.! %         p { X.Y     v X.X.Z     . k  .X.X.X.g                               X .                               e X.X.X.1     ",
"o.o.o.o.o.8       S X.X.X.X.! %       - K X.X.! @   v X./ D @ o s ~ X.X.X.X.K                                 % y                               e X.X.X.<     ",
"o.o.o.o.8       A X.X.X.X.~ *       s { X.X.' -   O 4 @   & b ] X.X.X.X.X.[ ;                                   Z =                             e X.X.X.1     ",
"o.o.o.0       V X.X.X.X./ =     - I X.X.X.} 4         4 G ..X.X.X.X.X.X.X.s                                     v B       .                     w X.X.X.<     ",
"o.o.e       V X.X.X.X./ =     h } X.X.X.X.e       0 ! X.X.X.X.X.X.X.X.X.K                                       8  .-   @ p O                   e X.X.X.1     ",
"o.t       N X.X.X.X./ =     r X.X.X.X.X.d         Y X.X.X.X.X.X.X.X.X.[ ;         .                             #  .A     r E ;                 e X.X.X.<     ",
"8       M X.X.X.X._ -       M X.X.X.X.b     q 2 O ] X.X.X.X.X.X.X.X.X.a       : g f %                             Y X.3     M X.p               e X.X.X.1     ",
"      b X.X.X.X._ =         Y X.X.X.S     @ ( < 2 X.X.X.X.X.X.X.] J a % r V ' [ k O                               c X.J     X Y X.D @     9 +   w X.X.X.<     ",
"    * ..X.X.X._ <         @ ' X.X.I .     C X.& s X.X.X.X.[ J k s c P ..X.X.G *                                   q X.X.0     , { X.L     p N   e X.X.X.1     ",
"    = | X.X.' <           4 X.X.~ @     e X.X.% A X.X.X.! G K _ X.X.X.X.~ 7                                       & { X.T       a X.!     @ _ & 0 X.X.X.1     ",
"    * ..X.X.M             s X.' ;     % _ X...2 ~ X.X... .X.X.X.X.X...j .                                           E X.X.i       D _ .     x o q X.X.X.1     ",
"    % ..X.X.b             A X.4     X I X.X. .] X.X.X.X.X.X.X.X.X.J =                                               M X.X.^ O   : 4 K @     % 2 g X.X.X.<     ",
"    = ..X.X.b             W i       Z X.X.X.X.X.X.X.X.X.X.X.X./ w                                             = @   r X.X.X.0   K L - +     Z ..k X.X.X.>     ",
"    = ..X.X.b           - a       z X.X.X.X.X.X.X.X.X.X.X. .c O         X -                                   j 1   -  .X.X.2 - X.X.h     1 X.T e X.X.X.1     ",
"    % ..X.X.m                   p X.X.X.X.X.X.X.X.X.X.X.P :         O p I 9                       = : o       I q     ! X.X.= N X.X.~     C X.v 7 X.X.X.<     ",
"    = ..X.X.m                 7  .X.X.X.X.X.X.X.X.X.X.F         : n ' X.e                 m L y F X._ *     o { d     C X.[ 9 { X.X.)   - | X.9 8 X.X.X.>     ",
"    & ..X.X.b         4 -   : ' X.X.X.X.X.X.X.X.X.X.E @     e P X.X...9             a = a X.X.X.X.[ 2       2 X.M     p X.( A X.X.X.'   M X.} + 0 X.X.X.1     ",
"    & ..X.X.b         n Y # Q X.X.X.X.X.X.X.X.X.X.' ;     c X.X.X...0               J / [ X.X.X.X.C         j X.K     ; X... .X.X.X.' 3 [ X.T   w X.X.X.<     ",
"    = ..X.X.b         S X.' X.X.X.X.X.X.X.X.X.X.X.0     j X.X.X.X.e       O >       ! X.X.X.X.X.X.q       , } X.E     - { X.X.X.X.X.` F X.X.v   e X.X.X.1     ",
"    = ..X.X.b         T X.X.X.X.X.X.X.X.X.X.X.X.g     s X.X.X.X.E         n q     $ { X.X.X.X.X.s         E X.X.B     F X.X.X.X.X.X.X...X.X.0   w X.X.X.<     ",
"    % ..X.X.M       o _ X.X.X.X.X.X.X.X.X.X.X.M     i X.X.X.X.X.g       k /     6 y X.X.X.X.X.' @       n X.X.X.p   i X.X.X.X.X.X.X.X.X.X.[ %   e X.X.X.1     ",
"    = | X.X.m       =  .X.X.X.X.X.X.X.X.X.X. .J Y ) ..X.X.X.X.{ =     i X.k     k ( X.X.X.X.X./       w X.X.X.X.1 a { X.X.X.X.X.X.X.X.X.X.P     w X.X.X.<     ",
"    * ..X.X.b       5 X.X.X.X.X.X.X.X.X.X.X.X.X.X.X.X.X.X.X.X.D     q X...%     b X.X.X.X.X.X.E     % _ X.X.X.{ ^ X.X.X.X.X.X.X.X.X.X.X.X.p     e X.X.X.1     ",
"    % ..X.X.b       i X.X.X.X.X.X.X.X.X.X.X.X.X.X.X.X.X.X.X.X.0   6 ..X._ @     B X.X.X.X.X.X.J     H X.X.X.X.X.X.X.X.X.X.X.X.X.' ..X.L <       w X.X.X.<     ",
"    = ..X.X.b       v X.X.X.{ X.X.X.X.X.X.X.X.X.X.X.X.X.X.X.~     W X.X.X.S     A X.X.X.X.X.X.Y @ f X.X.X.X.X.X.X.X.X.X.X.X.X._ g / y           e X.X.X.1     ",
"    = ..X.X.b       y k q < @ x X.X.X.X.X.X.X.X.X.X.X.X.X.X.' = 3 X.X.X.X.X.j   G X.X.X.X.X.X.X.....X.X.X.X.X.X.X.X.X.X.X.X.X.7 # %             e X.X.X.1     ",
"    % ..X.X.M                   8 ` X.X.X.X.X.X.X.X.X.X.X.X.X.! J X.X.X.X.X.X.' { X.X.X.X.X.X.X.X.X.X.X.X.X.X.X.X.X.X.X.X.X.s                   e X.X.X.1     ",
"    = ..X.X.b                     % L X.X.X.^ ..X.X.X.X.X.X.X.X.X.X.X.X.X.X.X.X.X.X.X.X.X.X.X.X.X.X.X.X.X.X.X.X.X.E T X.X.v                     e X.X.X.<     ",
"    & ..X.X.b                       o / X.D < ..X.X.X.X.X.X.X.X.X.X.X.X.X.X.X.X.X.X.X.X.X.X.X.X.X.X.X.X.X.X.X.X.X.r V X.D                       e X.X.X.>     ",
"    & ..X.X.b                       O ] V   % ..X.X.X.X.X.X.X.X.X.X.X.X.X.X.X.X.X.X.X.X.X.X.X.X.X.| ( X.X.X.X.X.~   m ! o                       w X.X.X.1     ",
"    = ..X.X.b                       & d     = ..X.X.X.X.X.X.X.X.X.X.X.X.X.X.X.X.X.X.X.X.X.X.X.X.X.S i X.X.X.X.X.p   q <                         e X.X.X.<     ",
"    = ..X.X.M                               = ..X.X.X.X.X.X.X.X.X.} W X.X.X.X.X.X.X.X.X.X.X.X.X.| - : X.X.X.X.~ .                               e X.X.X.>     ",
"    % ..X.X.b                               % ^ | X.X.X.X.X.X.X.X.x   x X.X.X.X.X.X.X.X.X.X.X.X.m   O _ X...D ;                                 e X.X.X.1     ",
"    * ..X.X.b                                 X % 2 r k C U / X.L       7 _ X.X.X.X.X.X.X.X.X._ @     F A ;                                     e X.X.X.<     ",
"    * ..X.X.m                                               X % @       @ Q X.X.X.X.X.X.X.X.X.p       X                                         e X.X.X.1     ",
"    % ..X.X.b                                                         = ^ X.X.X.X.X.X.X.X.X.~ w p     1                                         w X.X.X.<     ",
"    = ..X.X.b                                                       = ( X.X.X.X.X.X.X.X.X.X...X.x   6 h                                         e X.X.X.1     ",
"    = ..X.X.b       + @                                           2 _ X.X.X.X.X.X.X.X.X.X.X.X.' @   F g                                         w X.X.X.<     ",
"    & ..X.X.m         l p                                         g  .X.X.X.X.X.X.X.X.X.X.X.X.v   - X.e                                         e X.X.X.1     ",
"    * ..X.X.m         @ W Y <                                       @ f [ X.X.X.X.X.X.X.X.X.{ =   B ` $                                         w X.X.X.<     ",
"    * ..X.X.b           % / X.m @                                     1 } X.X.X.X.X.X.X.X.{ d   ; ! :                                           V X.X.X.1     ",
"    & ..X.X.b             ; ` X.] w                                 % / X.X.X.X.X.X.X.{ n #     f 4                                         . S X.X.X.X.1     ",
"    = ..X.X.b               4 ..X./ O                             . K X.X.X.X.X.X...N &         &                                         @ P X.X.X.X.X.1     ",
"    = ..X.X.b                 e X.X.f     .                       n X.X.X.X.X.X.X.J                                                     % W X.X.X.X.X.X.<     ",
"    % ..X.X.M                   f X.( +   i e                 @ k X.X.X.X.X.X.X.X./ .                                                 < / X.X.X.X.X.X.X.>     ",
"    = | X.X.m                     n X.g   8 } 1           4 V [ X.X.X.X.X.X.X.X.X.X.1                                               4 ] X.X.X.X.X.X.X.X.1     ",
"    * ..X.X.b                       F ] . %  ._ =   $ d W X.X.X.X.X.Y T X.X.X.X.X.X.p                                             w ..X.X.X.X.X.X.X.X.X.<     ",
"    % ..X.X.b                       . E x   / X.E V { X.X.X.X.X.X.X.e ~ X.X.X.X.X.X.A .                                         s X.X.X.X.X.X.X.X.X.X.X.>     ",
"    = ..X.X.b                         % U # J X.X.X.X.X.X.X.X.X.X.F 9 X.X.X.X.X.X.X.~                                         k X.X.X.X.X.X.X.X.X.X.X.X.1     ",
"    = ..X.X.b                           3 r v X.X.X.X.....X.X.X.X.2 M X.X.X.X.X.X.X.X.;                                     N X.X.X.X.X.X.X.X.X.X.X.X.X.<     ",
"    % ..X.X.M                             @ s X.X.X.E z { X.X.X.G X _ X.X.X.X.X.X.X.X.y                                 . G X.X.X.X.X.X.X.X.X.X.X.X.X.X.1     ",
"    = ..X.X.b                               6 X./ y . Y X.X.X.X.1 6 X.X.X.X.X.X.X.X.X.V                               @ P X.X.X.X.X.X.X.X.X.X.X.X.X.X.X.<     ",
"    & ..X.X.m                 . -           % a .   Z X.X.X.X.G   B X.X.X.X.X.X.X.X.X.!                             * ! X.X.X.X.X.X.X.X.X.X.X.X.X.X.X.X.1     ",
"    & ..X.X.b                   w F k -           h X.X.X.X.X.2   _ X.X.X.X.X.X.X.X.X.| =                         < / X.X.X.X.X.X.X.X.X.X.X.X.X.X.X.X.X.1     ",
"    = ..X.X.b                     ; T [ +       r X.X.X.X.X.j   9 X.X.X.X.B [ X.X.X.X.X.r     O                 7 [ X.X.X.X.X.X.X.X.X.X.X.X.X.X.X.X.X.X.1     ",
"    = ..X.X.M                         9 * w V / X.X.X.X.X.s   @ ! X.X.X.G   Y X.X.X.X.X.F a Y g               e ..X.X.X.X.X.X.X.X.X.X.X.X.X.X.X.X.X.X.X.<     ",
"    % ..X.X.b                   @ 4 g H { X.X.X.X.X.X. .y     F X.X.X._ %   d X.X.X.X.X.X.X...<             d X.X.X.X.X.X.X.X.X.X.X.X.X.X.X.X.X.X.X.X.X.>     ",
"    * ..X.X.b                   u / X.X.X.X.X.X.X.X.} 0     k X.X.X.X.0     @ b ~ X.X.X.X.X.F             x X.X.X.X.X.X.X.X.X.X.X.X.X.X.X.X.X.X.X.X.X.X.1     ",
"    * ..X.X.m                     . 4 N _ X.X.X.X.] 4     q X.X.X.[ h   r ! I     , k T ..X.8           B X.X.X.X.X.X.X.X.X.X.X.X.X.X.X.X.X.X.X.X.X.X.X.<     ",
"    % ..X.X.b                     X       6 V { _ 1     , { X.Y p @     % c  .S         ; y .       . H X.X.X.X.X.X.X.X.X.X.X.X.X.X.X.X.X.X.X.X.X.X.X.X.>     ",
"    = ..X.X.b         @ : 0 j S ! _ I b y = . % %     + J V >               @ m 0                 @ Y X.X.X.X.X.X.X.X.X.X.X.X.X.X.X.X.X.X.X.X.X.X.X.X.X.1     ",
"    = ..X.X.b     @ y C ! | X.X.X.X.X.X.X.X.V         + @                       .               = ! X.X.X.X.X.X.X.X.X.X.X.X.X.X.X.X.X.X.X.X.X.X.X.X.X.X.<     ",
"    & ..X.X.S = 1 1 1 2 4 q a x A Y _  .X.L 2 < 1 1 1 < < 1 1 1 1 1 1 1 1 2 1 1 1 1 1 1 1 1 1 7 _ X.X.X.X.X.X.X.X.X.X.X.X.X.X.X.X.X.X.X.X.X.X.X.X.X.X.X.1     ",
"    * ..X.X.X.X.X.X.X.X.X.......{ { ..X.X...X.X.X.X.X.X.X.X.X.X.X.X.X.X.X.X.X.X.X.X.X.X.X.X.X.X.X.X.X.X.X.X.X.X.X.X.X.X.X.X.X.X.X.X.X.X.X.X.X.X.X.X.X.X.<     ",
"    * ..X.X.X.X.X.X.X.X.X.X.X.X.X.X.X.X.X.X.X.X.X.X.X.X.X.X.X.X.X.X.X.X.X.X.X.X.X.X.X.X.X.X.X.X.X.X.X.X.X.X.X.X.X.X.X.X.X.X.X.X.X.X.X.X.X.X.X.X.X.X.X.X.1     ",
"    = ..X.X.X.X.X.X.X.X.X.X.X.X.X.X.X.X.X.X.X.X.X.X.X.X.X.X.X.X.X.X.X.X.X.X.X.X.X.X.X.X.X.X.X.X.X.X.X.X.X.X.X.X.X.X.X.X.X.X.X.X.X.X.X.X.X.X.X.X.X.X.X.X.1     ",
"      4 4 4 4 4 4 4 4 4 4 4 5 4 4 7 6 4 4 7 7 4 7 4 7 7 7 7 7 7 7 7 7 7 7 7 7 7 7 0 0 7 7 0 0 7 7 0 0 0 8 0 0 0 0 0 0 0 0 0 0 q q 0 q q q 0 q e w w e e O     ",
"                                                                                                                                                              ",
"                                                                                                                                                              "
};
