/* XPM */
static char *_2998e637ec6469eed8938a53d355496[] = {
/* columns rows colors chars-per-pixel */
"32 32 96 2 ",
"   c #161615",
".  c #171716",
"X  c #20201E",
"o  c #252524",
"O  c #313130",
"+  c #323231",
"@  c #333332",
"#  c #343432",
"$  c #353534",
"%  c #363635",
"&  c #373735",
"*  c #383837",
"=  c #393938",
"-  c #3A3A39",
";  c #3B3B3A",
":  c #3C3C3B",
">  c #3D3D3C",
",  c gray24",
"<  c #3E3E3D",
"1  c #3F3F3D",
"2  c #3F3F3E",
"3  c #444442",
"4  c #454544",
"5  c #464645",
"6  c #474746",
"7  c #484847",
"8  c #494948",
"9  c #4B4B4A",
"0  c #4C4C4B",
"q  c #4D4D4C",
"w  c #4E4E4D",
"e  c #4F4F4E",
"r  c #50504F",
"t  c #515150",
"y  c #525251",
"u  c #545453",
"i  c #555554",
"p  c #555555",
"a  c #565655",
"s  c #575756",
"d  c #585857",
"f  c #595958",
"g  c #5A5A59",
"h  c #5B5B5A",
"j  c #5B5B5B",
"k  c #686867",
"l  c #6A6A69",
"z  c #6D6D6C",
"x  c #6E6E6D",
"c  c #6F6F6E",
"v  c gray45",
"b  c #80807F",
"n  c #848483",
"m  c #868685",
"M  c #878786",
"N  c gray54",
"B  c #8B8B8B",
"V  c #919190",
"C  c #979795",
"Z  c #979796",
"A  c #9A9A99",
"S  c #9D9D9C",
"D  c #9F9F9F",
"F  c #A0A0A0",
"G  c #A5A5A5",
"H  c #A7A7A7",
"J  c #A9A9A8",
"K  c #A9A9A9",
"L  c #B7B7B6",
"P  c #BBBBBB",
"I  c #C1C1C0",
"U  c #C1C1C1",
"Y  c #C4C4C3",
"T  c #C7C7C6",
"R  c #CBCBCB",
"E  c #CCCCCB",
"W  c #D6D6D4",
"Q  c #DBDBDA",
"!  c gray86",
"~  c #DEDEDD",
"^  c gray87",
"/  c #E1E1E1",
"(  c gray89",
")  c #E4E4E4",
"_  c gray90",
"`  c gray91",
"'  c gray92",
"]  c #EFEFEF",
"[  c #F1F1F1",
"{  c gray96",
"}  c #F6F6F5",
"|  c #F6F6F6",
" . c gray98",
".. c gray99",
"X. c gray100",
"o. c None",
/* pixels */
"o.o.o.o.o.o.o.o.o.o.o.s s s s s s s s s s o.o.o.o.o.o.o.o.o.o.o.",
"o.o.o.o.o.o.o.s s s s s s s s s s s s s s s s s s o.o.o.o.o.o.o.",
"o.o.o.o.o.s s s s s s s s s s s s s s s s s s s s s s o.o.o.o.o.",
"o.o.o.o.s s s s s s s s s d d < < d d s s s s s s s s s o.o.o.o.",
"o.o.o.s s s s s s s s d f 6 $ m M * 4 f d s s s s s s s s o.o.o.",
"o.o.s s s s s s s s f w @ f T X.X.T d @ w f s s s s s s s s o.o.",
"o.o.s s s s s s f s $ 6 G X.{ v v { X.G 6 $ s f s s s s s s o.o.",
"o.s s s s s d f < * m  .X.F 3 ; ; 3 F X. .m * < f d s s s s s o.",
"o.s s s s f 7 @ l ~ X.I s @ w f f w @ s I X.~ l @ 6 f s s s s o.",
"o.s s s s w u K X._ x @ 6 f s s s s f 6 @ x _ X.K u w d s s s o.",
"o.s s s w w _ X.H . @ f d s s s s s s s f @ . K X._ 0 r s s s o.",
"s s s s w f { [ { K 9 $ u d s s s s d s $ 0 K ..[ { f w s s s s ",
"s s s s w d  .V n X.X.B ; : d d s s : ; B X.X.v V  .d w s s s s ",
"s s s s w d X.Z . r P X._ x # 7 9 @ x _ X.P y . Z X.d w s s s s ",
"s s s s w d X.S < 7 @ k ! X.Y 9 0 I X.! k # 9 < S X.d w s s s s ",
"s s s s w d X.S ; d f < * n X.] ] X.n * < d s : S X.d w s s s s ",
"s s s s w d X.S : s s d s $ : { { < $ s f s s : S X.d w s s s s ",
"s s s s w d X.S : s s s s d O W W @ d s s s s : S X.d w s s s s ",
"s s s s w d X.S : s s s s s : ~ ! < s s s s s : S X.d w s s s s ",
"s s s s w d X.A : s s s s s : ! ! ; s s s s s : A X.d w s s s s ",
"s s s s w f X.Z X u d d s s : ! ! : u d s d y X Z X.f w s s s s ",
"o.s s s w w ' X.B * : d s s : ! ! : s d d < ; B X.' w r s s s o.",
"o.s s s d w y L X./ x @ 4 d : ! ! : d 6 @ x / X.L r w d s s s o.",
"o.s s s s f 6 @ l ~ X.I s @ $ ~ ~ # @ u I X.~ l @ 6 f s s s s o.",
"o.s s s s s d f < * m  .X.S o E R o S X. .m ; < f d s s s s s o.",
"o.o.s s s s s s d s $ 6 G X.' / / ' X.G 6 $ u f s s s s s s o.o.",
"o.o.s s s s s s s s f w @ f R X.X.R d @ w f s s s s s s s s o.o.",
"o.o.o.s s s s s s s d d f 6 $ b b $ 6 f d s s s s s s s s o.o.o.",
"o.o.o.o.s s s s s s s s s d d < 2 d d s s s s s s s s s o.o.o.o.",
"o.o.o.o.o.s s s s s s s s s d s d d s s s s s s s s s o.o.o.o.o.",
"o.o.o.o.o.o.o.s s s s s s s s s s s s s s s s s s o.o.o.o.o.o.o.",
"o.o.o.o.o.o.o.o.o.o.o.s s s s s s s s s s o.o.o.o.o.o.o.o.o.o.o."
};
