/* XPM */
static char *_473348632836[] = {
/* columns rows colors chars-per-pixel */
"16 16 156 2 ",
"   c black",
".  c #010101",
"X  c #020202",
"o  c gray1",
"O  c #040303",
"+  c #040404",
"@  c gray2",
"#  c #070707",
"$  c #090909",
"%  c #0C0C0C",
"&  c #0E0E0D",
"*  c #0E0E0E",
"=  c #10100F",
"-  c gray7",
";  c #131312",
":  c #151515",
">  c #181717",
",  c #1A1919",
"<  c #1B1A1A",
"1  c #1D1D1C",
"2  c #232322",
"3  c gray14",
"4  c #272727",
"5  c #2B2B2A",
"6  c #2C2C2B",
"7  c #343434",
"8  c #353535",
"9  c #363635",
"0  c gray22",
"q  c #393938",
"w  c #3A3939",
"e  c gray25",
"r  c #414141",
"t  c #424141",
"y  c #4A4949",
"u  c #4C4C4B",
"i  c #4C4C4C",
"p  c #4E4E4E",
"a  c #50504F",
"s  c #505050",
"d  c #515050",
"f  c #515151",
"g  c #535353",
"h  c #545453",
"j  c #555454",
"k  c #555555",
"l  c #565555",
"z  c #555556",
"x  c #565656",
"c  c #575756",
"v  c #5A5A5A",
"b  c #5B5B5A",
"n  c #605F5E",
"m  c gray38",
"M  c #626261",
"N  c #626262",
"B  c gray39",
"V  c #646463",
"C  c #676666",
"Z  c #676767",
"A  c #676768",
"S  c #686868",
"D  c DimGray",
"F  c #6A6969",
"G  c #6C6C6C",
"H  c #6D6D6D",
"J  c #717070",
"K  c #717171",
"L  c #727272",
"P  c #747474",
"I  c #747575",
"U  c gray46",
"Y  c #767575",
"T  c #777777",
"R  c gray47",
"E  c #797978",
"W  c #797979",
"Q  c gray48",
"!  c #7B7B7B",
"~  c #7C7C7C",
"^  c #7E7E7D",
"/  c #7E7E7E",
"(  c #808080",
")  c #818181",
"_  c #828281",
"`  c gray51",
"'  c #838383",
"]  c #848483",
"[  c #848484",
"{  c gray52",
"}  c #868686",
"|  c #878686",
" . c gray53",
".. c #898989",
"X. c gray54",
"o. c gray55",
"O. c #90908F",
"+. c #909090",
"@. c gray58",
"#. c #979696",
"$. c #979797",
"%. c #989897",
"&. c #999998",
"*. c #9A9A99",
"=. c #9B9B9A",
"-. c #9C9B9B",
";. c #9F9E9E",
":. c #A4A3A3",
">. c #A4A4A3",
",. c #A5A5A5",
"<. c #A8A8A7",
"1. c #A9A9A8",
"2. c #ABABAA",
"3. c #ADACAC",
"4. c #AFAFAF",
"5. c #B2B1B1",
"6. c #B4B3B3",
"7. c #B7B7B7",
"8. c #B8B8B7",
"9. c #BAB9B9",
"0. c gray73",
"q. c #BBBBBB",
"w. c #C1C1C1",
"e. c #C2C2C1",
"r. c gray76",
"t. c #C3C2C2",
"y. c #C3C3C3",
"u. c #C4C4C3",
"i. c gray77",
"p. c #C5C5C5",
"a. c #C6C6C5",
"s. c #C8C8C7",
"d. c #CBCBCB",
"f. c gray80",
"g. c #CFCECE",
"h. c #D1D1D0",
"j. c #D5D4D4",
"k. c #D6D6D5",
"l. c #D9D8D8",
"z. c gray86",
"x. c #DCDBDB",
"c. c gainsboro",
"v. c #DFDFDF",
"b. c gray90",
"n. c gray91",
"m. c #E9E9E8",
"M. c #E9E9E9",
"N. c #EBEBEA",
"B. c gray92",
"V. c #F1F1F0",
"C. c #F4F4F4",
"Z. c #F6F6F6",
"A. c gray97",
"S. c gray98",
"D. c white",
"F. c None",
/* pixels */
"F.F.F.x T J T J T T Q Q T Q Q 7 ",
"F.F.A 0.G ^ { _ &.s x s x p +._ ",
"F.S w.S C n &.1.; . . - . . p { ",
"x 0.v 8.h i.D._ $ . . y s 2 x _ ",
"Q H 1 V g.S.<.q . . . t $.s ] _ ",
"Q B 4 g.D.o.T , 5 ,.9 h u.w.2.Q ",
"T B 5.D.n.s.;.q 3.w.Q d.V.n.^ ! ",
"Q S 5 %.A.D.j.l.b.A.A.D.3.* p [ ",
"Q S . O c n.v.j.D.v.7.S @ . s { ",
"Q C . . . @ = 0.D.7., . . . s _ ",
"Q B 2 B . . , n.v.y : . . . $.{ ",
"Q C . e J T p.D.&.. . . . $.D.^ ",
"R A . . y n.w.A.j.+ . * 3.D.D.Q ",
"Q C . 9 :.:.&.&.h.h * p.D.D.D.^ ",
"T $.S w.6.B J x v B l.D.D.D.D.! ",
"7  . ..._ _ _ { _ ..o.[ { { o.t "
};
