/* XPM */
static char *_473348607050[] = {
/* columns rows colors chars-per-pixel */
"31 32 64 1 ",
"  c #010101",
". c #0A0A0A",
"X c #10100F",
"o c #131313",
"O c #1B1B1B",
"+ c #21201F",
"@ c #252524",
"# c #282827",
"$ c #2C2C2B",
"% c #333232",
"& c #3C3C3B",
"* c #403F3F",
"= c #41403F",
"- c #444443",
"; c #484847",
": c #4C4C4B",
"> c #51504F",
", c #545353",
"< c #585756",
"1 c #5C5C5B",
"2 c #605F5E",
"3 c #636262",
"4 c #686766",
"5 c #696867",
"6 c #676868",
"7 c #6B6B6A",
"8 c #757474",
"9 c #787776",
"0 c #797877",
"q c #7C7C7B",
"w c #807F7E",
"e c #838383",
"r c #8B8B8B",
"t c #898886",
"y c #908F8F",
"u c #91908F",
"i c #959594",
"p c #9D9D9D",
"a c #A09F9F",
"s c #A0A09F",
"d c #A4A3A3",
"f c #A9A8A7",
"g c #ACABAB",
"h c #B1B0AF",
"j c #B3B3B2",
"k c #B9B8B7",
"l c #BBBABA",
"z c #C0BFBF",
"x c #C0C0BF",
"c c #C3C3C2",
"v c #C8C8C7",
"b c #CDCCCC",
"n c #D0CFCF",
"m c #D5D5D4",
"M c #D8D7D6",
"N c #D8D8D7",
"B c #DCDCDC",
"V c #E0DFDF",
"C c #E5E5E5",
"Z c #EBEAEA",
"A c #F0F0EF",
"S c #F4F4F4",
"D c #FFFFFF",
"F c None",
/* pixels */
"FFFFFF,                        ",
"FFFFF3OlBBBmmmBmmBBBNBBBBBNBmf ",
"FFFF7.NDiertcfedmrttrttrtttrbC ",
"FFFF.nD< @-&i @c&           0C.",
"FFF bD1 8j:n$1Di            eC.",
"FF cD2OkCO*ybDN.     o;     eC ",
"F.kD6OZD@OBDDS%.X     r@,.  eC ",
" dD8 8D&;0DSbhr8o     qe%cO@eC.",
" Cj  j7OBkDZSb,       &So8;@iC ",
" Bi ., mDDDS8        oOS8rO,bB ",
" Vp   jDDDB@#i-  $8e 1$hkD>kdC.",
" Bp 2hDDDZ@9D7  <ZDq k*9DDcj0C ",
" Vp gDDDD07Dc 3ohDB 1D-bDDD88C ",
" Bi mDDDDSDD,9ioDDgOZDCDDDm+0Z.",
" Vp q0mDDDDD3DB4DDCnDDDDm>. eZ ",
" Vp   ovBSDDDDDDDDDDDDBB#   eZ ",
" Vp    &#DDDDDDDDDDcDD:%    eC ",
" Bp      ilBB:xDDDB@k3      eC ",
" Ba         o jDDDgX.       eC.",
" Vi @.       pDDDDc,%       qZ ",
" Bp @d&      #ZDDC;1o       fC ",
" Vp  &Z$     pDDdo .       rDm ",
" Vp   1r:@ ;gDDD0         pDDm.",
" Bp    >tBmDDjDDc       .jDDDB ",
" Vp     ;DbDbaDDA.     ocDDDDm ",
" Bp   @@ %hD7mDDD&    +bDDDDDm.",
" Vp   O81fDr1DyZDg:  $BDDDDDDN ",
" Vp   +pDDr$Sj%wjD, &CDDDDDDDm.",
" Bi O,e87: 6* +& . :ADDDDDDDDm ",
" BmefnSDN8eq8q0qq0rDDDDDDDDDDB.",
" gBCCBmmBCCCCCZCZZZBNBBBBBBBBk ",
"  .    .. . ... . ..... ...... "
};
