<svg id="svg" version="1.1" width="500" height="500" xmlns="http://www.w3.org/2000/svg" xmlns:xlink="http://www.w3.org/1999/xlink" style="display: block;"><g id="svgg"><path id="path0" d="M197.960 82.325 C 197.542 82.723,195.940 83.758,194.400 84.625 C 192.860 85.492,187.100 88.816,181.600 92.013 C 176.100 95.209,168.180 99.794,164.000 102.202 C 159.820 104.611,155.230 107.261,153.800 108.091 C 152.370 108.921,149.940 110.320,148.400 111.200 C 146.860 112.080,144.340 113.520,142.800 114.400 C 137.657 117.339,134.849 118.966,128.000 122.976 C 106.911 135.323,102.958 137.600,102.620 137.600 C 102.415 137.600,101.201 138.345,99.923 139.254 L 97.600 140.909 97.600 200.706 L 97.600 260.503 100.600 262.150 C 104.527 264.305,117.661 271.872,123.035 275.076 C 125.365 276.464,127.408 277.600,127.576 277.600 C 127.745 277.600,130.699 279.310,134.141 281.400 C 137.584 283.490,141.480 285.739,142.800 286.399 C 144.120 287.058,145.380 287.778,145.600 287.999 C 145.820 288.219,146.859 288.884,147.910 289.475 C 148.960 290.067,150.940 291.196,152.310 291.986 C 153.679 292.776,159.480 296.101,165.200 299.375 C 170.920 302.649,180.100 307.967,185.600 311.193 C 201.801 320.694,199.299 320.398,210.000 314.079 C 213.429 312.055,241.078 295.976,245.400 293.494 C 249.187 291.318,253.223 289.014,256.293 287.273 C 257.775 286.434,261.412 284.274,264.375 282.473 C 267.339 280.673,269.873 279.200,270.007 279.200 C 270.268 279.200,278.802 274.263,293.800 265.433 L 303.200 259.900 303.200 200.404 L 303.200 140.909 300.877 139.254 C 299.599 138.345,298.395 137.600,298.201 137.600 C 298.008 137.600,292.484 134.493,285.925 130.695 C 273.597 123.557,270.760 121.920,266.000 119.200 C 258.991 115.195,257.738 114.468,253.600 112.000 C 251.180 110.557,247.940 108.664,246.400 107.793 C 236.675 102.295,226.291 96.300,223.200 94.399 C 219.126 91.894,212.486 88.160,209.806 86.866 C 208.820 86.390,208.010 85.730,208.006 85.400 C 208.003 85.070,207.550 84.792,207.000 84.782 C 206.450 84.772,205.100 84.060,204.000 83.200 C 201.862 81.528,199.200 81.142,197.960 82.325 M204.376 90.400 C 205.929 91.280,208.370 92.681,209.800 93.513 C 211.230 94.345,218.340 98.429,225.600 102.590 C 232.860 106.750,242.040 112.056,246.000 114.380 C 253.160 118.582,255.851 120.143,261.200 123.200 C 262.740 124.080,265.260 125.520,266.800 126.400 C 283.457 135.918,291.062 140.531,294.049 142.929 L 297.200 145.457 297.431 200.577 C 297.649 252.681,297.584 255.766,296.231 256.977 C 295.444 257.681,288.140 262.116,280.000 266.833 C 260.901 277.899,257.300 279.971,251.400 283.285 C 249.750 284.212,248.040 285.240,247.600 285.570 C 247.160 285.900,244.820 287.250,242.400 288.571 C 239.980 289.892,232.659 294.084,226.131 297.887 C 219.603 301.689,213.963 304.800,213.597 304.800 C 213.232 304.800,212.813 305.107,212.667 305.482 C 212.520 305.858,209.729 307.450,206.464 309.022 C 199.504 312.372,199.222 312.317,187.200 305.325 C 183.460 303.149,176.980 299.401,172.800 296.994 C 168.620 294.588,164.030 291.939,162.600 291.109 C 161.170 290.279,158.650 288.842,157.000 287.915 C 155.350 286.988,153.640 285.946,153.200 285.600 C 152.385 284.959,149.459 283.277,141.600 278.932 C 139.180 277.594,130.720 272.739,122.800 268.144 C 114.880 263.549,107.320 259.176,106.000 258.426 L 103.600 257.062 103.600 201.395 L 103.600 145.728 105.600 143.599 C 106.700 142.429,110.300 139.931,113.600 138.050 C 116.900 136.169,125.360 131.294,132.400 127.218 C 146.944 118.795,149.361 117.397,153.000 115.305 C 154.430 114.483,160.966 110.703,167.525 106.905 C 174.084 103.107,179.537 100.000,179.643 100.000 C 179.749 100.000,182.207 98.560,185.104 96.800 C 188.001 95.040,190.738 93.600,191.186 93.600 C 191.633 93.600,192.000 93.240,192.000 92.800 C 192.000 92.360,192.450 91.992,193.000 91.982 C 193.550 91.972,194.900 91.260,196.000 90.400 C 198.559 88.398,200.843 88.398,204.376 90.400 " stroke="none" fill="#969696" fill-rule="evenodd"></path><path id="path1" d="M195.569 82.746 C 192.946 84.183,188.820 86.543,186.400 87.991 C 180.684 91.411,177.390 93.296,172.000 96.233 C 169.580 97.552,167.240 98.905,166.800 99.241 C 166.360 99.577,156.820 105.151,145.600 111.628 C 134.380 118.106,124.120 124.036,122.800 124.806 C 121.480 125.577,115.180 129.199,108.800 132.855 C 102.420 136.510,96.936 139.884,96.612 140.351 C 96.289 140.818,96.019 168.081,96.012 200.936 L 96.000 260.673 107.400 267.233 C 113.670 270.841,119.970 274.469,121.400 275.296 C 122.830 276.123,125.170 277.476,126.600 278.303 C 131.667 281.231,154.871 294.666,159.600 297.411 C 166.169 301.222,169.114 302.922,172.400 304.800 C 179.409 308.805,180.662 309.532,184.800 312.000 C 190.407 315.343,194.070 317.451,197.626 319.379 L 200.453 320.912 205.812 317.656 C 208.759 315.865,211.538 314.400,211.986 314.400 C 212.433 314.400,212.800 314.040,212.800 313.600 C 212.800 313.160,213.132 312.800,213.537 312.800 C 213.942 312.800,217.452 310.954,221.337 308.697 C 225.222 306.441,229.570 303.921,231.000 303.097 C 240.530 297.609,248.034 293.251,255.600 288.810 C 259.560 286.485,264.780 283.500,267.200 282.177 C 269.620 280.853,271.960 279.500,272.400 279.170 C 272.840 278.840,274.550 277.812,276.200 276.885 C 277.850 275.958,280.370 274.524,281.800 273.698 C 283.230 272.871,288.360 269.934,293.200 267.170 C 298.040 264.405,302.630 261.606,303.400 260.948 C 305.567 259.097,305.567 141.718,303.400 139.825 C 302.630 139.152,297.140 135.812,291.200 132.401 C 285.260 128.991,279.230 125.526,277.800 124.700 C 276.370 123.875,274.030 122.525,272.600 121.700 C 271.170 120.875,259.560 114.169,246.800 106.797 C 222.687 92.866,220.119 91.384,215.800 88.912 C 214.370 88.093,211.309 86.302,208.997 84.931 C 200.181 79.702,200.909 79.820,195.569 82.746 M204.000 83.200 C 205.100 84.060,206.450 84.772,207.000 84.782 C 207.550 84.792,208.003 85.070,208.006 85.400 C 208.010 85.730,208.820 86.390,209.806 86.866 C 212.486 88.160,219.126 91.894,223.200 94.399 C 226.291 96.300,236.675 102.295,246.400 107.793 C 247.940 108.664,251.180 110.557,253.600 112.000 C 257.738 114.468,258.991 115.195,266.000 119.200 C 270.760 121.920,273.597 123.557,285.925 130.695 C 292.484 134.493,298.008 137.600,298.201 137.600 C 298.395 137.600,299.599 138.345,300.877 139.254 L 303.200 140.909 303.200 200.404 L 303.200 259.900 293.800 265.433 C 278.802 274.263,270.268 279.200,270.007 279.200 C 269.873 279.200,267.339 280.673,264.375 282.473 C 261.412 284.274,257.775 286.434,256.293 287.273 C 253.223 289.014,249.187 291.318,245.400 293.494 C 241.078 295.976,213.429 312.055,210.000 314.079 C 199.299 320.398,201.801 320.694,185.600 311.193 C 180.100 307.967,170.920 302.649,165.200 299.375 C 159.480 296.101,153.679 292.776,152.310 291.986 C 150.940 291.196,148.960 290.067,147.910 289.475 C 146.859 288.884,145.820 288.219,145.600 287.999 C 145.380 287.778,144.120 287.058,142.800 286.399 C 141.480 285.739,137.584 283.490,134.141 281.400 C 130.699 279.310,127.745 277.600,127.576 277.600 C 127.408 277.600,125.365 276.464,123.035 275.076 C 117.661 271.872,104.527 264.305,100.600 262.150 L 97.600 260.503 97.600 200.706 L 97.600 140.909 99.923 139.254 C 101.201 138.345,102.415 137.600,102.620 137.600 C 102.958 137.600,106.911 135.323,128.000 122.976 C 134.849 118.966,137.657 117.339,142.800 114.400 C 144.340 113.520,146.860 112.080,148.400 111.200 C 149.940 110.320,152.370 108.921,153.800 108.091 C 155.230 107.261,159.820 104.611,164.000 102.202 C 168.180 99.794,176.100 95.209,181.600 92.013 C 187.100 88.816,192.860 85.492,194.400 84.625 C 195.940 83.758,197.542 82.723,197.960 82.325 C 199.200 81.142,201.862 81.528,204.000 83.200 M196.000 90.400 C 194.900 91.260,193.550 91.972,193.000 91.982 C 192.450 91.992,192.000 92.360,192.000 92.800 C 192.000 93.240,191.633 93.600,191.186 93.600 C 190.738 93.600,188.001 95.040,185.104 96.800 C 182.207 98.560,179.749 100.000,179.643 100.000 C 179.537 100.000,174.084 103.107,167.525 106.905 C 160.966 110.703,154.430 114.483,153.000 115.305 C 149.361 117.397,146.944 118.795,132.400 127.218 C 125.360 131.294,116.900 136.169,113.600 138.050 C 110.300 139.931,106.700 142.429,105.600 143.599 L 103.600 145.728 103.600 201.395 L 103.600 257.062 106.000 258.426 C 107.320 259.176,114.880 263.549,122.800 268.144 C 130.720 272.739,139.180 277.594,141.600 278.932 C 149.459 283.277,152.385 284.959,153.200 285.600 C 153.640 285.946,155.350 286.988,157.000 287.915 C 158.650 288.842,161.170 290.279,162.600 291.109 C 164.030 291.939,168.620 294.588,172.800 296.994 C 176.980 299.401,183.460 303.149,187.200 305.325 C 199.222 312.317,199.504 312.372,206.464 309.022 C 209.729 307.450,212.520 305.858,212.667 305.482 C 212.813 305.107,213.232 304.800,213.597 304.800 C 213.963 304.800,219.603 301.689,226.131 297.887 C 232.659 294.084,239.980 289.892,242.400 288.571 C 244.820 287.250,247.160 285.900,247.600 285.570 C 248.040 285.240,249.750 284.212,251.400 283.285 C 257.300 279.971,260.901 277.899,280.000 266.833 C 288.140 262.116,295.444 257.681,296.231 256.977 C 297.584 255.766,297.649 252.681,297.431 200.577 L 297.200 145.457 294.049 142.929 C 291.062 140.531,283.457 135.918,266.800 126.400 C 265.260 125.520,262.740 124.080,261.200 123.200 C 255.851 120.143,253.160 118.582,246.000 114.380 C 242.040 112.056,232.860 106.750,225.600 102.590 C 218.340 98.429,211.230 94.345,209.800 93.513 C 200.424 88.058,199.314 87.808,196.000 90.400 M209.442 94.494 C 214.149 97.185,219.620 100.383,221.600 101.601 C 223.580 102.818,226.820 104.705,228.800 105.794 C 232.824 108.007,234.000 108.681,247.600 116.571 C 266.569 127.575,278.828 134.671,280.400 135.557 C 288.276 139.999,291.200 141.845,291.200 142.377 C 291.200 142.720,285.710 146.180,279.000 150.066 C 253.303 164.948,237.910 173.857,235.600 175.185 C 234.280 175.944,227.800 179.759,221.200 183.664 C 214.600 187.568,207.175 191.791,204.699 193.048 L 200.198 195.333 197.099 193.811 C 195.395 192.974,183.020 185.872,169.600 178.029 C 156.180 170.186,144.120 163.148,142.800 162.389 C 119.615 149.057,110.000 143.195,110.000 142.391 C 110.000 141.851,114.680 138.707,120.400 135.405 C 129.785 129.985,153.391 116.392,159.693 112.777 C 161.065 111.991,164.612 109.874,167.575 108.073 C 170.539 106.273,173.079 104.800,173.221 104.800 C 173.362 104.800,179.349 101.380,186.525 97.200 C 201.989 88.193,199.034 88.542,209.442 94.494 M306.400 204.369 C 306.400 267.348,306.893 261.839,300.986 264.864 C 299.784 265.479,297.000 267.027,294.800 268.303 C 292.600 269.579,289.630 271.293,288.200 272.112 C 283.581 274.756,280.692 276.429,262.800 286.827 C 253.120 292.453,242.860 298.377,240.000 299.993 C 237.140 301.608,233.450 303.711,231.800 304.665 C 230.150 305.619,227.450 307.162,225.800 308.094 C 224.150 309.025,221.844 310.465,220.677 311.294 C 219.509 312.122,218.393 312.800,218.197 312.800 C 218.002 312.800,214.103 314.960,209.534 317.600 C 204.964 320.240,200.851 322.400,200.393 322.400 C 199.544 322.400,192.477 318.434,164.800 302.428 C 156.220 297.466,147.580 292.493,145.600 291.378 C 143.620 290.262,139.713 287.966,136.918 286.275 C 134.123 284.584,131.730 283.200,131.600 283.200 C 131.470 283.200,129.077 281.820,126.282 280.133 C 123.487 278.446,119.220 275.977,116.800 274.647 C 114.380 273.318,110.123 270.885,107.340 269.241 C 100.647 265.289,100.640 265.471,107.052 276.502 C 111.552 284.242,122.589 303.369,129.613 315.600 C 130.371 316.920,135.056 325.020,140.024 333.600 C 147.866 347.143,157.967 364.653,162.408 372.400 C 163.164 373.720,167.031 380.380,171.001 387.200 L 178.219 399.600 289.110 399.803 L 400.000 400.006 400.000 353.569 C 400.000 321.976,399.729 306.824,399.151 306.166 C 398.685 305.635,392.697 295.480,385.845 283.600 C 378.993 271.720,372.762 260.920,371.998 259.600 C 371.234 258.280,364.683 246.940,357.440 234.400 C 350.197 221.860,336.780 198.640,327.624 182.800 C 318.468 166.960,310.241 152.650,309.340 151.000 C 308.440 149.350,307.410 148.000,307.052 148.000 C 306.693 148.000,306.400 173.366,306.400 204.369 M115.867 156.122 C 120.560 158.828,125.480 161.655,126.800 162.404 C 128.120 163.152,134.420 166.816,140.800 170.544 C 147.180 174.273,161.040 182.288,171.600 188.355 C 182.160 194.423,192.150 200.250,193.800 201.305 L 196.800 203.223 196.800 256.011 C 196.800 312.323,196.947 310.334,192.999 307.570 C 191.066 306.215,174.154 296.389,167.200 292.580 C 164.780 291.254,162.440 289.900,162.000 289.570 C 161.560 289.240,159.940 288.257,158.400 287.385 C 156.860 286.513,145.160 279.763,132.400 272.383 C 119.640 265.004,108.336 258.503,107.280 257.936 C 106.223 257.369,105.143 256.556,104.880 256.129 C 103.617 254.088,104.798 150.228,106.078 150.719 C 106.769 150.984,111.174 153.415,115.867 156.122 M296.000 203.102 C 296.000 244.292,295.782 255.983,295.000 256.625 C 294.187 257.293,282.206 264.296,256.400 279.186 C 255.080 279.947,246.980 284.639,238.400 289.611 C 209.934 306.107,205.205 308.791,204.600 308.796 C 203.824 308.801,203.836 203.871,204.612 202.757 C 204.936 202.293,214.873 196.353,226.695 189.557 C 238.518 182.761,249.678 176.339,251.495 175.287 C 253.313 174.235,255.880 172.758,257.200 172.006 C 261.056 169.809,284.793 155.993,289.600 153.147 C 292.020 151.715,294.450 150.511,295.000 150.472 C 295.791 150.415,296.000 161.436,296.000 203.102 " stroke="none" fill="#adadad" fill-rule="evenodd"></path><path id="path2" d="M0.000 200.000 L 0.000 400.000 89.265 400.000 L 178.530 400.000 176.958 397.400 C 175.513 395.010,165.625 378.022,162.406 372.400 C 158.516 365.605,148.043 347.450,140.024 333.600 C 135.056 325.020,130.371 316.920,129.613 315.600 C 122.589 303.369,111.552 284.242,107.052 276.502 C 100.640 265.471,100.647 265.289,107.340 269.241 C 110.123 270.885,114.380 273.318,116.800 274.647 C 119.220 275.977,123.487 278.446,126.282 280.133 C 129.077 281.820,131.470 283.200,131.600 283.200 C 131.730 283.200,134.123 284.584,136.918 286.275 C 139.713 287.966,143.620 290.262,145.600 291.378 C 147.580 292.493,156.220 297.466,164.800 302.428 C 192.477 318.434,199.544 322.400,200.393 322.400 C 200.851 322.400,204.964 320.240,209.534 317.600 C 214.103 314.960,218.002 312.800,218.197 312.800 C 218.393 312.800,219.509 312.122,220.677 311.294 C 221.844 310.465,224.150 309.025,225.800 308.094 C 227.450 307.162,230.150 305.619,231.800 304.665 C 233.450 303.711,237.140 301.608,240.000 299.993 C 242.860 298.377,253.120 292.453,262.800 286.827 C 280.692 276.429,283.581 274.756,288.200 272.112 C 289.630 271.293,292.600 269.579,294.800 268.303 C 297.000 267.027,299.784 265.479,300.986 264.864 C 306.893 261.839,306.400 267.348,306.400 204.369 C 306.400 173.366,306.693 148.000,307.052 148.000 C 307.410 148.000,308.440 149.350,309.340 151.000 C 310.241 152.650,318.468 166.960,327.624 182.800 C 336.780 198.640,350.197 221.860,357.440 234.400 C 364.683 246.940,371.233 258.280,371.995 259.600 C 372.758 260.920,378.699 271.180,385.199 282.400 C 391.698 293.620,397.385 303.610,397.837 304.600 C 398.288 305.590,398.959 306.400,399.328 306.400 C 399.698 306.400,400.000 237.460,400.000 153.200 L 400.000 0.000 200.000 0.000 L 0.000 0.000 0.000 200.000 M208.997 84.931 C 211.309 86.302,214.370 88.093,215.800 88.912 C 220.119 91.384,222.687 92.866,246.800 106.797 C 259.560 114.169,271.170 120.875,272.600 121.700 C 274.030 122.525,276.370 123.875,277.800 124.700 C 279.230 125.526,285.260 128.991,291.200 132.401 C 297.140 135.812,302.630 139.152,303.400 139.825 C 305.567 141.718,305.567 259.097,303.400 260.948 C 302.630 261.606,298.040 264.405,293.200 267.170 C 288.360 269.934,283.230 272.871,281.800 273.698 C 280.370 274.524,277.850 275.958,276.200 276.885 C 274.550 277.812,272.840 278.840,272.400 279.170 C 271.960 279.500,269.620 280.853,267.200 282.177 C 264.780 283.500,259.560 286.485,255.600 288.810 C 248.034 293.251,240.530 297.609,231.000 303.097 C 229.570 303.921,225.222 306.441,221.337 308.697 C 217.452 310.954,213.942 312.800,213.537 312.800 C 213.132 312.800,212.800 313.160,212.800 313.600 C 212.800 314.040,212.433 314.400,211.986 314.400 C 211.538 314.400,208.759 315.865,205.812 317.656 L 200.453 320.912 197.626 319.379 C 194.070 317.451,190.407 315.343,184.800 312.000 C 180.662 309.532,179.409 308.805,172.400 304.800 C 169.114 302.922,166.169 301.222,159.600 297.411 C 154.871 294.666,131.667 281.231,126.600 278.303 C 125.170 277.476,122.830 276.123,121.400 275.296 C 119.970 274.469,113.670 270.841,107.400 267.233 L 96.000 260.673 96.012 200.936 C 96.019 168.081,96.289 140.818,96.612 140.351 C 96.936 139.884,102.420 136.510,108.800 132.855 C 115.180 129.199,121.480 125.577,122.800 124.806 C 124.120 124.036,134.380 118.106,145.600 111.628 C 156.820 105.151,166.360 99.577,166.800 99.241 C 167.240 98.905,169.580 97.552,172.000 96.233 C 177.390 93.296,180.684 91.411,186.400 87.991 C 201.212 79.129,199.586 79.349,208.997 84.931 M186.525 97.200 C 179.349 101.380,173.362 104.800,173.221 104.800 C 173.079 104.800,170.539 106.273,167.575 108.073 C 164.612 109.874,161.065 111.991,159.693 112.777 C 153.391 116.392,129.785 129.985,120.400 135.405 C 114.680 138.707,110.000 141.851,110.000 142.391 C 110.000 143.195,119.615 149.057,142.800 162.389 C 144.120 163.148,156.180 170.186,169.600 178.029 C 183.020 185.872,195.395 192.974,197.099 193.811 L 200.198 195.333 204.699 193.048 C 207.175 191.791,214.600 187.568,221.200 183.664 C 227.800 179.759,234.280 175.944,235.600 175.185 C 237.910 173.857,253.303 164.948,279.000 150.066 C 285.710 146.180,291.200 142.720,291.200 142.377 C 291.200 141.845,288.276 139.999,280.400 135.557 C 278.828 134.671,266.569 127.575,247.600 116.571 C 234.000 108.681,232.824 108.007,228.800 105.794 C 226.820 104.705,223.580 102.818,221.600 101.601 C 214.729 97.376,200.881 89.600,200.229 89.600 C 199.868 89.600,193.701 93.020,186.525 97.200 M104.611 202.796 C 104.495 231.703,104.616 255.703,104.880 256.129 C 105.143 256.556,106.223 257.369,107.280 257.936 C 108.336 258.503,119.640 265.004,132.400 272.383 C 145.160 279.763,156.860 286.513,158.400 287.385 C 159.940 288.257,161.560 289.240,162.000 289.570 C 162.440 289.900,164.780 291.254,167.200 292.580 C 174.154 296.389,191.066 306.215,192.999 307.570 C 196.947 310.334,196.800 312.323,196.800 256.011 L 196.800 203.223 193.800 201.305 C 192.150 200.250,182.160 194.423,171.600 188.355 C 161.040 182.288,147.180 174.273,140.800 170.544 C 134.420 166.816,128.120 163.152,126.800 162.404 C 125.480 161.655,120.560 158.828,115.867 156.122 C 111.174 153.415,106.769 150.984,106.078 150.719 C 104.947 150.285,104.802 155.430,104.611 202.796 M289.600 153.147 C 284.793 155.993,261.056 169.809,257.200 172.006 C 255.880 172.758,253.313 174.235,251.495 175.287 C 249.678 176.339,238.518 182.761,226.695 189.557 C 214.873 196.353,204.936 202.293,204.612 202.757 C 203.836 203.871,203.824 308.801,204.600 308.796 C 205.205 308.791,209.934 306.107,238.400 289.611 C 246.980 284.639,255.080 279.947,256.400 279.186 C 282.206 264.296,294.187 257.293,295.000 256.625 C 295.782 255.983,296.000 244.292,296.000 203.102 C 296.000 161.436,295.791 150.415,295.000 150.472 C 294.450 150.511,292.020 151.715,289.600 153.147 " stroke="none" fill="#d6d6d6" fill-rule="evenodd"></path></g></svg>