<svg id="Layer_1" data-name="Layer 1" xmlns="http://www.w3.org/2000/svg" width="256" height="256" viewBox="0 0 256 256">
  <title>dynamic</title>
  <path d="M250,128c0,25.48-3.51,48.2-9,63a74.29,74.29,0,0,1-50,50c-14.81,5.5-37.53,9-63,9s-48.2-3.52-63-9a74.31,74.31,0,0,1-50-50C9.5,176.2,6,153.48,6,128S9.5,79.8,15,65A74.31,74.31,0,0,1,65,15c14.82-5.5,37.53-9,63-9s48.2,3.52,63,9a74.29,74.29,0,0,1,50,50C246.46,79.8,250,102.52,250,128Z" fill="#575756"/>
  <path d="M204.5,172.18V83.82L128,39.64,51.45,83.82v88.36L128,216.36ZM128,50.68l62.18,35.9L128,122.48,65.8,86.58Zm-4.78,80.08v71.8L61,166.66V94.86Zm71.74-35.9v71.8l-62.17,35.9v-71.8h0Z" fill="#fff"/>
</svg>
