<?xml version="1.0" encoding="utf-8"?>
<!-- Generator: Adobe Illustrator 16.0.0, SVG Export Plug-In . SVG Version: 6.00 Build 0)  -->
<!DOCTYPE svg PUBLIC "-//W3C//DTD SVG 1.1//EN" "http://www.w3.org/Graphics/SVG/1.1/DTD/svg11.dtd">
<svg version="1.1" id="Layer_1" xmlns="http://www.w3.org/2000/svg" xmlns:xlink="http://www.w3.org/1999/xlink" x="0px" y="0px"
	 width="170.08px" height="170.08px" viewBox="0 0 170.08 170.08" enable-background="new 0 0 170.08 170.08" xml:space="preserve">
<g>
	<polygon fill="#FFFFFF" points="7.836,162.092 7.836,41.552 40.692,8.696 161.229,8.696 161.229,162.092 	"/>
	<path d="M158.229,11.696v118.782v28.613H10.836V42.795l31.099-31.099H158.229 M164.229,5.696H39.449L4.836,40.31v124.782h159.394
		v-34.612V5.696L164.229,5.696z"/>
</g>
<path d="M92.48,21.636L75.946,46.509l-8.024,2.562l-6.526,2.826l28.713-7.541L63.68,60.53l-9.707,11.956l6.358-0.758l7.168-7.682
	l14.21-5.789l-8.741,8.801l-4.684,12.075l3.124,3.377l1.994-5.27l9.496-10.376l-3.462,9.07l3.462,4.621l3.199,0.793l0.522-11.468
	l1.614,3.522l0.904-4.133l1.131-6.672l2,2.861l4.082-4.783l1.352,0.853l1.551,0.561l3.916-1.735l3.176,0.467L103,64.198
	l-0.114,2.242l-2.816,3.096l-0.783,8.794l2.954,0.961l10.017-13.997l2.176-9.617l1.741,11.207l-1.741,7.614l4.346-2.412l3.494-5.202
	l-7.735-32.602l11.644,21.395l-0.867,10.41l5.664-11.994l3.482,4.793l0.434,10.006l6.526-13.612l3.047-0.791l-5.222,20.009
	l-8.711,5.199l0.878-3.996l-11.843,13.955l-0.791-7.556l-4.992,10.004l-7.372,3.481l-1.965-8.78L97.26,99.211l4.464-1.028
	l-4.261,9.142l-9.257,4.809l5.654,23.49l5.636-1.461l-3.481,8.11l-12.536-3.924l-2.14-6.188l-6.037,8.479l-12.422,4.914
	l9.231-11.759l5.224-16.008l-1.667,0.862l-6.991,13.793l-12.035,11.185l-15.086-5.295l15.679-4.508l7.443-9.459l-10.248,5.323
	l-2.681-16.026l6.169,6.907l14.145-5.594l6.871-8.738l-5.936-2.721l8.143-7.92l-6.27-4.66l-3.62,4.808l-16.899-2.412V83.328
	l-7.328,6.442l0.486-4.842l-8.101-6.047l-8.064,1.168l2.43-16.952l3.079,3.767l11.894-13.996l5.952-8.769l-0.27,9.627l1.822-0.479
	l2.526-11.542l15.506-6.732l17.877-13.338H75.833l-8.875,14.365l-7.517,1.227l15.298-15.592H46.052L20.775,46.913v102.238h102.24
	l25.276-25.274V21.636H92.48z M123.349,40.358l11.006,7.84l0.365,8.108L123.349,40.358z M141.62,53.983l-2.686-7.894l3.489,3.955
	L141.62,53.983z M39.409,42.39l25.485-16.789L35.922,58.905L39.409,42.39z M48.531,135.144l-7.511-5.181l7.775,2.466L48.531,135.144
	z M44.233,109.498l8.322,16.517l-20.662-23.688L44.233,109.498z M50.462,148.696l-20.926-2.674l14.487-2.668l10.731,2.138
	L50.462,148.696z M78.308,140.813l4.293-1.233l4.291,5.67L78.308,140.813z M105.935,105.041l-5.758,6.065l6.344-13.431
	L105.935,105.041z"/>
</svg>
